<svg width="1920" height="1080" viewBox="0 0 1920 1080" fill="none" xmlns="http://www.w3.org/2000/svg">
<g clip-path="url(#clip0_1634_9738)">
<rect width="1920" height="1080" fill="white"/>
<path d="M936.849 515.005C938.814 712.232 539.633 1021 338.349 1023.01C137.066 1025.01 -47.1283 860.603 -49.0931 663.377C-51.058 466.15 92.8493 250.505 382.349 179.505C671.849 108.505 934.884 317.779 936.849 515.005Z" fill="#F8C641"/>
<path d="M844.934 706.306C846.288 698.44 848.995 690.882 852.979 683.823C856.888 676.955 864.015 670.019 872.344 671.946C880.461 673.791 883.442 683.128 884.38 690.784C888.263 726.097 877.145 760.855 866.262 794.379C852.924 792.704 839.621 789.056 827.279 783.573C833.733 770.189 842.691 759.968 841.518 745.372C840.293 729.652 835.053 701.411 836.064 694.448C837.076 687.484 841.704 695.973 842.099 698.115C842.495 700.257 843.99 703.065 844.934 706.306Z" fill="#FCDAD1"/>
<path d="M414.328 659.04C444.646 713.247 457.602 774.343 410.964 800.428C364.326 826.513 291.683 805.28 261.365 751.073C231.048 696.867 244.278 631.778 290.916 605.694C337.554 579.609 384.011 604.834 414.328 659.04Z" fill="#FCDAD1"/>
<path d="M394.893 845.224L384.661 849.63C374.07 854.191 361.868 849.492 357.407 839.135L341.21 801.525L389.746 780.623L405.943 818.233C410.454 828.568 405.484 840.663 394.893 845.224Z" fill="#FCDAD1"/>
<path d="M359.577 832.316C354.524 838.513 328.865 863.444 328.865 863.444C328.865 863.444 340.832 905.875 403.737 885.753C459.099 868.083 449.672 833.54 449.672 833.54L404.864 820.477L359.577 832.316Z" fill="#FCDAD1"/>
<path d="M867.978 770.161C857.528 765.296 847.078 760.432 836.739 755.479C825.881 767.651 824.494 785.286 822.656 801.446C820.149 823.833 815.836 846.012 809.737 867.782C806.127 880.585 801.113 894.142 789.634 900.751C775.662 908.802 757.897 902.993 742.673 897.172C685.616 875.042 643.477 830.7 586.419 808.569C541.26 791.064 514.605 842.125 524.4 882.402C533.468 919.036 552.746 942.916 584.319 957.331C625.09 975.959 687.522 985.895 730.195 1000.06C755.214 1008.34 783.173 1015.72 806.852 1004.32C818.202 998.914 827.443 989.505 834.651 979.15C858.231 945.971 864.101 903.634 868.573 862.966C871.4 836.65 873.847 810.088 875.872 783.68C876.085 780.755 876.319 777.63 874.772 775.012C873.382 772.818 870.59 771.377 867.978 770.161Z" fill="#F1F1F1"/>
<path d="M611.733 836.329C631.328 894.799 561.199 971.025 455.094 1006.58C348.99 1042.14 247.09 1023.57 227.495 965.099C207.9 906.629 292.655 874.044 398.759 838.485C504.864 802.926 592.138 777.859 611.733 836.329Z" fill="#F2F2F2"/>
<path d="M403.503 959.724L287.616 898.483L316.084 868.588L354.489 837.729L403.503 959.724Z" fill="#1A65FF"/>
<path d="M388.051 943.618L431.677 828.548L519.032 860.811L388.051 943.618Z" fill="#1A65FF"/>
<path d="M316.305 703.806C308.134 693.462 288.747 697.005 284.79 709.491C281.806 718.748 302.604 751.371 306.534 761.774C316.898 789.386 315.936 988.748 328.118 1015.79C282.306 1023.8 238.881 1029.52 221.217 1009.79C203.553 990.069 178.146 993.081 171.477 988.924C164.808 984.768 154.285 917.67 153.632 911.461C142.993 818.61 195.003 576.482 309.83 561.763C323.907 559.91 340.214 559.246 354.463 560.447C363.812 561.222 372.041 563.868 380.902 567.211C398.977 574.284 412.062 590.92 419.078 609.067C426.237 627.193 428.064 646.866 429.968 666.086C430.578 672.008 369.597 689.024 362.857 689.024C355.236 689.013 331.925 672.672 324.959 676.961C316.914 681.855 317.988 695.627 316.305 703.806Z" fill="#151632"/>
<path d="M316.713 762.63C316.783 767.709 315.259 770.398 313.113 771.923C310.844 773.535 307.562 774.09 303.618 774.144C299.67 774.199 296.526 773.729 294.357 772.2C292.301 770.751 290.806 768.109 290.736 762.986C290.665 757.809 292.032 751.55 294.374 746.605C295.544 744.136 296.923 742.069 298.419 740.633C299.912 739.2 301.432 738.477 302.934 738.456C304.447 738.436 306.051 739.124 307.678 740.531C309.303 741.935 310.849 743.973 312.196 746.408C314.896 751.29 316.643 757.49 316.713 762.63Z" stroke="#F0C85B" stroke-width="3"/>
<path d="M107.395 245.123L200.706 331.625L-6.14577 618.814L-144 511.974L107.395 245.123Z" fill="#EF981A"/>
<path d="M327.742 90.3653L385.42 138.948L200.675 435.187L91.6303 347.323L327.742 90.3653Z" fill="#EF981A"/>
<path d="M424.431 35.2254L419.287 176.776L286.666 72.4628L424.431 35.2254Z" fill="#EF981A"/>
<path d="M622 230.35C631.472 230.35 639.15 222.672 639.15 213.2C639.15 203.728 631.472 196.05 622 196.05C612.528 196.05 604.85 203.728 604.85 213.2C604.85 222.672 612.528 230.35 622 230.35Z" fill="#151632"/>
<path d="M572 252.6H615.45V283.9H572V252.6ZM628.55 252.6H672.05V283.9H628.55V252.6ZM655.25 252.6H648.25V244.7H595.75V252.6H588.35V237.95H655.25V252.6Z" fill="#151632"/>
<path d="M618.25 226.85H625.75V239.45H618.25V226.85Z" fill="#151632"/>
<path d="M513.5 81.5H468.5V36.5H513.5V81.5ZM477.5 54.5V63.5H486.5V72.5H495.5V63.5H504.5V54.5H495.5V45.5H486.5V54.5H477.5Z" fill="#151632"/>
<path d="M763.833 115.267H735.5C735.445 115.271 735.389 115.264 735.336 115.246C735.284 115.228 735.236 115.2 735.195 115.162C735.154 115.124 735.122 115.079 735.1 115.028C735.078 114.977 735.066 114.922 735.066 114.867V101.8H720.8C720.649 101.8 720.505 101.74 720.399 101.634C720.293 101.528 720.233 101.384 720.233 101.233V87.8666H713.566C713.48 87.8571 713.397 87.828 713.324 87.7814C713.251 87.7348 713.19 87.6721 713.145 87.598C713.1 87.524 713.072 87.4406 713.064 87.3542C713.057 87.2679 713.069 87.1809 713.1 87.1L720.266 70.9666C720.27 69.5609 720.449 68.1611 720.8 66.8C721.566 63.6112 723.138 60.6727 725.366 58.2666C729.833 53.4666 736.933 50.9333 746.3 50.7H747.633C752.817 50.5335 757.977 51.4768 762.766 53.4666C766.141 54.9672 769.011 57.4092 771.033 60.5C774.231 66.3701 775.688 73.0307 775.233 79.7C775.212 82.7053 774.624 85.6796 773.5 88.4666C772.531 90.8809 771.266 93.1651 769.733 95.2666C768.149 97.4815 766.302 99.4962 764.233 101.267V114.867C764.238 114.925 764.23 114.983 764.211 115.038C764.191 115.093 764.159 115.143 764.117 115.184C764.076 115.226 764.026 115.257 763.971 115.277C763.917 115.297 763.858 115.305 763.8 115.3L763.833 115.267ZM737.866 89.7C739.573 91.3583 741.654 92.5816 743.933 93.2666L744.933 99.1666H751.633L752.433 93.2666C754.642 92.601 756.663 91.4249 758.333 89.8333L764.066 91.7666L767.166 85.9666L762.5 82.7333C762.991 80.7941 763.081 78.7753 762.766 76.8L767.766 73.2666L764.766 67.5L759.333 69.3666C757.491 67.2523 755.087 65.7035 752.4 64.9L751.633 59.2666H744.9L744 64.9C741.348 65.6853 738.969 67.1981 737.133 69.2666L731.866 67.5333L728.933 73.3666L733.6 76.5333C733.255 78.5371 733.323 80.5901 733.8 82.5666L729.133 86.3333L732.6 91.9333L737.866 89.7Z" fill="#151632"/>
<path d="M748.433 89.0333C753.956 89.0333 758.433 84.5562 758.433 79.0333C758.433 73.5105 753.956 69.0333 748.433 69.0333C742.91 69.0333 738.433 73.5105 738.433 79.0333C738.433 84.5562 742.91 89.0333 748.433 89.0333Z" fill="black"/>
<path d="M988.879 231.254C988.153 227.545 986.29 224.154 983.548 221.552C980.807 218.95 977.324 217.266 973.582 216.734C969.84 216.201 966.025 216.847 962.667 218.582C959.308 220.316 956.574 223.053 954.842 226.413C951.183 226.874 947.834 228.704 945.471 231.536C943.107 234.367 941.904 237.988 942.104 241.671C942.304 245.353 943.891 248.824 946.547 251.383C949.203 253.942 952.729 255.399 956.417 255.463H988.004C991.097 255.391 994.046 254.141 996.248 251.968C998.449 249.795 999.738 246.862 999.85 243.771C999.961 240.679 998.888 237.661 996.849 235.335C994.81 233.008 991.959 231.549 988.879 231.254ZM966.129 248.171L957.642 239.683L961.054 236.242L966.158 241.317L978.729 228.746L982.171 232.158L966.129 248.171Z" fill="#151632"/>
<path d="M199.542 115.417L193.083 110.625L185.167 109.313L184 101.375L179.312 94.8334L184.104 88.375L185.417 80.4584L193.354 79.2709L199.896 74.6042L206.354 79.3959L214.271 80.7084L215.458 88.6459L220.125 95.1875L215.333 101.646L214.021 109.563L206.083 110.75L199.542 115.417ZM194.125 93.5L191.646 95.9584L197.75 102.063L209.292 90.5209L206.75 87.9584L197.75 96.9375L194.125 93.5Z" fill="#151632"/>
<path d="M64.5333 171.433H40V211.5C40.3667 220.833 49.4333 230.267 64.5333 231.433C79.6333 230.2 89.1 222.5 89.1 211.5V171.433H64.5333ZM83.6333 177.433V211.5C83.6333 219.5 74.6667 225.7 64.5333 225.8C54.4 225.9 45.7 217.9 45.4667 211.5C45.2333 205.1 45.4667 177.433 45.4667 177.433H83.6333Z" fill="#151632"/>
<path d="M47.9002 179.767H65.1002L64.7002 223.367C64.7002 223.367 49.5669 222.533 47.9002 209.933C47.8336 197.5 47.9002 179.767 47.9002 179.767Z" fill="black"/>
<line x1="-2.09242" y1="667.632" x2="150.908" y2="433.632" stroke="white" stroke-width="5" stroke-dasharray="8 8"/>
<line x1="209.829" y1="464.413" x2="363.829" y2="194.76" stroke="white" stroke-width="5" stroke-dasharray="8 8"/>
<line x1="160.768" y1="426.232" x2="204.768" y2="470.232" stroke="white" stroke-width="5" stroke-dasharray="8 8"/>
<g clip-path="url(#clip1_1634_9738)">
<path d="M515.019 929.571C526.386 929.571 535.6 920.137 535.6 908.5C535.6 896.863 526.386 887.429 515.019 887.429C503.653 887.429 494.438 896.863 494.438 908.5C494.438 920.137 503.653 929.571 515.019 929.571Z" fill="white"/>
<path d="M522.761 908.984C521.327 907.085 519.682 906.176 516.938 905.164C513.36 903.823 511.593 902.902 511.82 900.339C512.014 898.148 514.09 896.954 516.351 897.164C517.572 897.277 518.418 897.772 519.045 898.341C519.326 898.726 519.759 898.993 520.264 899.04C521.21 899.128 522.044 898.415 522.13 897.447C522.207 896.572 521.644 895.791 520.836 895.584C519.885 895.225 518.689 894.92 517.179 894.78C514.674 894.548 512.914 894.953 510.642 896.256C508.365 897.622 507.188 899.783 506.945 902.537C506.553 906.978 509.664 909.412 513.709 911.047C517.876 912.694 519.365 913.967 519.144 916.47C518.94 918.785 516.852 920.105 514.468 919.885C511.473 919.607 510.445 917.998 509.512 916.02L507.805 912.329C507.705 912.068 507.522 912.051 507.271 912.091L506.077 912.359C505.889 912.405 505.81 912.587 505.849 912.843L506.268 919.252C506.307 919.509 506.474 919.712 506.696 919.986C507.319 920.611 509.913 921.925 513.152 922.224C519.202 922.784 523.688 919.416 524.152 914.16C524.34 912.031 523.985 910.484 522.761 908.984Z" fill="#183242"/>
</g>
<g clip-path="url(#clip2_1634_9738)">
<path d="M884.5 1029.95V1039.95L902 1049.5L919.5 1039.95V1029.95L902 1039.5L884.5 1029.95ZM902 1004.5L874.5 1019.5L902 1034.5L924.5 1022.23V1039.5H929.5V1019.5L902 1004.5Z" fill="#1D1D3D"/>
</g>
<path d="M951.078 1032.09C951.078 1031.66 951.01 1031.27 950.875 1030.92C950.75 1030.57 950.516 1030.25 950.172 1029.97C949.839 1029.68 949.365 1029.4 948.75 1029.12C948.146 1028.84 947.365 1028.55 946.406 1028.25C945.344 1027.92 944.354 1027.54 943.438 1027.12C942.521 1026.71 941.714 1026.22 941.016 1025.67C940.328 1025.12 939.792 1024.48 939.406 1023.77C939.021 1023.04 938.828 1022.19 938.828 1021.23C938.828 1020.3 939.026 1019.44 939.422 1018.67C939.828 1017.9 940.401 1017.24 941.141 1016.69C941.88 1016.12 942.75 1015.69 943.75 1015.39C944.76 1015.09 945.875 1014.94 947.094 1014.94C948.781 1014.94 950.24 1015.24 951.469 1015.86C952.708 1016.47 953.667 1017.31 954.344 1018.36C955.021 1019.41 955.359 1020.59 955.359 1021.91H951.078C951.078 1021.2 950.927 1020.57 950.625 1020.03C950.333 1019.49 949.885 1019.06 949.281 1018.75C948.688 1018.44 947.938 1018.28 947.031 1018.28C946.156 1018.28 945.427 1018.41 944.844 1018.67C944.271 1018.93 943.839 1019.29 943.547 1019.73C943.266 1020.18 943.125 1020.68 943.125 1021.23C943.125 1021.65 943.224 1022.03 943.422 1022.36C943.62 1022.68 943.917 1022.99 944.312 1023.28C944.708 1023.56 945.198 1023.83 945.781 1024.08C946.375 1024.32 947.062 1024.56 947.844 1024.8C949.094 1025.17 950.188 1025.59 951.125 1026.05C952.073 1026.51 952.859 1027.03 953.484 1027.61C954.12 1028.19 954.594 1028.85 954.906 1029.58C955.229 1030.31 955.391 1031.14 955.391 1032.06C955.391 1033.04 955.198 1033.92 954.812 1034.69C954.427 1035.46 953.875 1036.11 953.156 1036.66C952.438 1037.2 951.573 1037.61 950.562 1037.89C949.562 1038.17 948.443 1038.31 947.203 1038.31C946.099 1038.31 945.005 1038.17 943.922 1037.88C942.849 1037.57 941.875 1037.12 941 1036.53C940.125 1035.93 939.427 1035.17 938.906 1034.25C938.385 1033.32 938.125 1032.24 938.125 1031H942.438C942.438 1031.72 942.552 1032.33 942.781 1032.84C943.021 1033.34 943.354 1033.76 943.781 1034.08C944.219 1034.39 944.729 1034.62 945.312 1034.77C945.896 1034.91 946.526 1034.98 947.203 1034.98C948.078 1034.98 948.797 1034.86 949.359 1034.62C949.932 1034.38 950.359 1034.03 950.641 1033.59C950.932 1033.16 951.078 1032.66 951.078 1032.09ZM963.281 1015.25V1038H958.984V1015.25H963.281ZM985.672 1026.23V1035.09C985.339 1035.52 984.812 1035.98 984.094 1036.48C983.385 1036.98 982.458 1037.42 981.312 1037.78C980.167 1038.14 978.76 1038.31 977.094 1038.31C975.646 1038.31 974.323 1038.07 973.125 1037.59C971.927 1037.1 970.896 1036.39 970.031 1035.45C969.167 1034.52 968.5 1033.37 968.031 1032.02C967.562 1030.66 967.328 1029.11 967.328 1027.38V1025.88C967.328 1024.14 967.547 1022.59 967.984 1021.23C968.432 1019.88 969.068 1018.73 969.891 1017.8C970.724 1016.86 971.719 1016.15 972.875 1015.66C974.042 1015.17 975.344 1014.92 976.781 1014.92C978.708 1014.92 980.292 1015.24 981.531 1015.88C982.781 1016.51 983.74 1017.39 984.406 1018.5C985.073 1019.6 985.49 1020.88 985.656 1022.31H981.469C981.354 1021.52 981.125 1020.83 980.781 1020.23C980.438 1019.63 979.948 1019.16 979.312 1018.83C978.688 1018.48 977.875 1018.31 976.875 1018.31C976.031 1018.31 975.286 1018.48 974.641 1018.81C973.995 1019.15 973.453 1019.63 973.016 1020.27C972.578 1020.9 972.245 1021.69 972.016 1022.62C971.797 1023.56 971.688 1024.64 971.688 1025.84V1027.38C971.688 1028.59 971.812 1029.68 972.062 1030.62C972.312 1031.56 972.672 1032.35 973.141 1033C973.62 1033.64 974.208 1034.12 974.906 1034.45C975.615 1034.78 976.417 1034.94 977.312 1034.94C978.125 1034.94 978.797 1034.87 979.328 1034.73C979.87 1034.59 980.302 1034.42 980.625 1034.22C980.948 1034.02 981.198 1033.83 981.375 1033.64V1029.38H976.859V1026.23H985.672ZM1006.75 1018.7L1000.27 1038H995.719L1004.22 1015.25H1007.12L1006.75 1018.7ZM1012.17 1038L1005.66 1018.7L1005.27 1015.25H1008.19L1016.73 1038H1012.17ZM1011.88 1029.55V1032.94H999.672V1029.55H1011.88ZM1025.7 1035.06C1026.29 1035.06 1026.81 1034.95 1027.27 1034.72C1027.72 1034.49 1028.09 1034.17 1028.36 1033.75C1028.64 1033.33 1028.79 1032.85 1028.81 1032.3H1032.7C1032.68 1033.44 1032.36 1034.47 1031.73 1035.38C1031.11 1036.28 1030.28 1037 1029.23 1037.53C1028.2 1038.05 1027.05 1038.31 1025.77 1038.31C1024.46 1038.31 1023.33 1038.09 1022.36 1037.66C1021.39 1037.22 1020.58 1036.61 1019.94 1035.83C1019.3 1035.05 1018.82 1034.14 1018.5 1033.11C1018.19 1032.08 1018.03 1030.97 1018.03 1029.8V1029.3C1018.03 1028.12 1018.19 1027.02 1018.5 1025.98C1018.82 1024.95 1019.3 1024.05 1019.94 1023.27C1020.58 1022.48 1021.39 1021.88 1022.36 1021.44C1023.33 1021 1024.46 1020.78 1025.75 1020.78C1027.11 1020.78 1028.31 1021.05 1029.34 1021.58C1030.39 1022.11 1031.2 1022.86 1031.78 1023.83C1032.38 1024.8 1032.68 1025.94 1032.7 1027.25H1028.81C1028.79 1026.65 1028.66 1026.1 1028.41 1025.62C1028.16 1025.15 1027.8 1024.76 1027.34 1024.47C1026.89 1024.18 1026.33 1024.03 1025.67 1024.03C1024.97 1024.03 1024.39 1024.18 1023.92 1024.47C1023.46 1024.76 1023.1 1025.16 1022.84 1025.67C1022.59 1026.17 1022.42 1026.73 1022.31 1027.36C1022.22 1027.97 1022.17 1028.62 1022.17 1029.3V1029.8C1022.17 1030.48 1022.22 1031.14 1022.31 1031.77C1022.42 1032.39 1022.59 1032.95 1022.84 1033.45C1023.1 1033.94 1023.46 1034.33 1023.92 1034.62C1024.39 1034.92 1024.98 1035.06 1025.7 1035.06ZM1044.77 1034.41V1026.61C1044.77 1026.04 1044.67 1025.54 1044.47 1025.12C1044.27 1024.71 1043.97 1024.39 1043.56 1024.16C1043.16 1023.93 1042.64 1023.81 1042.02 1023.81C1041.46 1023.81 1040.98 1023.91 1040.56 1024.09C1040.16 1024.28 1039.84 1024.55 1039.62 1024.89C1039.41 1025.22 1039.3 1025.61 1039.3 1026.05H1035.16C1035.16 1025.35 1035.32 1024.69 1035.66 1024.06C1035.99 1023.43 1036.46 1022.86 1037.08 1022.38C1037.7 1021.88 1038.45 1021.48 1039.31 1021.2C1040.19 1020.92 1041.17 1020.78 1042.25 1020.78C1043.53 1020.78 1044.67 1021 1045.67 1021.44C1046.68 1021.86 1047.47 1022.51 1048.05 1023.38C1048.63 1024.24 1048.92 1025.33 1048.92 1026.64V1034.02C1048.92 1034.86 1048.97 1035.58 1049.08 1036.19C1049.19 1036.78 1049.36 1037.3 1049.58 1037.73V1038H1045.38C1045.18 1037.57 1045.03 1037.03 1044.92 1036.38C1044.82 1035.71 1044.77 1035.05 1044.77 1034.41ZM1045.34 1027.7L1045.38 1030.16H1042.77C1042.12 1030.16 1041.55 1030.22 1041.06 1030.36C1040.57 1030.48 1040.17 1030.67 1039.86 1030.92C1039.55 1031.16 1039.31 1031.45 1039.16 1031.8C1039 1032.13 1038.92 1032.51 1038.92 1032.94C1038.92 1033.35 1039.02 1033.73 1039.2 1034.06C1039.4 1034.4 1039.68 1034.66 1040.05 1034.86C1040.42 1035.05 1040.86 1035.14 1041.36 1035.14C1042.09 1035.14 1042.72 1034.99 1043.27 1034.7C1043.81 1034.4 1044.23 1034.04 1044.53 1033.61C1044.83 1033.18 1044.99 1032.78 1045.02 1032.39L1046.2 1034.17C1046.06 1034.6 1045.84 1035.05 1045.55 1035.53C1045.26 1036.01 1044.88 1036.46 1044.42 1036.88C1043.96 1037.29 1043.41 1037.64 1042.77 1037.91C1042.12 1038.18 1041.37 1038.31 1040.52 1038.31C1039.42 1038.31 1038.44 1038.09 1037.58 1037.66C1036.71 1037.22 1036.03 1036.62 1035.53 1035.86C1035.03 1035.1 1034.78 1034.23 1034.78 1033.27C1034.78 1032.37 1034.95 1031.58 1035.28 1030.89C1035.61 1030.2 1036.11 1029.62 1036.77 1029.16C1037.42 1028.68 1038.23 1028.32 1039.2 1028.08C1040.18 1027.83 1041.3 1027.7 1042.56 1027.7H1045.34ZM1062.78 1034.41V1014H1066.94V1038H1063.19L1062.78 1034.41ZM1051.92 1029.75V1029.42C1051.92 1028.13 1052.07 1026.96 1052.36 1025.91C1052.66 1024.84 1053.1 1023.93 1053.67 1023.17C1054.24 1022.41 1054.94 1021.82 1055.75 1021.41C1056.57 1020.99 1057.51 1020.78 1058.55 1020.78C1059.56 1020.78 1060.44 1020.98 1061.19 1021.39C1061.95 1021.8 1062.59 1022.38 1063.12 1023.12C1063.67 1023.88 1064.1 1024.77 1064.42 1025.8C1064.74 1026.82 1064.98 1027.94 1065.12 1029.17V1030.06C1064.98 1031.26 1064.74 1032.36 1064.42 1033.36C1064.1 1034.36 1063.67 1035.23 1063.12 1035.98C1062.59 1036.72 1061.95 1037.3 1061.19 1037.7C1060.43 1038.11 1059.54 1038.31 1058.52 1038.31C1057.48 1038.31 1056.56 1038.1 1055.73 1037.67C1054.92 1037.24 1054.23 1036.65 1053.66 1035.88C1053.09 1035.1 1052.66 1034.2 1052.36 1033.16C1052.07 1032.11 1051.92 1030.98 1051.92 1029.75ZM1056.06 1029.42V1029.75C1056.06 1030.48 1056.12 1031.16 1056.25 1031.8C1056.38 1032.43 1056.58 1032.99 1056.86 1033.48C1057.14 1033.96 1057.5 1034.34 1057.94 1034.61C1058.39 1034.88 1058.93 1035.02 1059.56 1035.02C1060.38 1035.02 1061.04 1034.84 1061.56 1034.48C1062.09 1034.12 1062.51 1033.62 1062.8 1033C1063.09 1032.36 1063.28 1031.65 1063.36 1030.86V1028.41C1063.32 1027.78 1063.21 1027.2 1063.03 1026.67C1062.86 1026.14 1062.62 1025.68 1062.31 1025.3C1062.01 1024.91 1061.64 1024.61 1061.19 1024.39C1060.74 1024.17 1060.21 1024.06 1059.59 1024.06C1058.96 1024.06 1058.42 1024.2 1057.97 1024.48C1057.52 1024.76 1057.16 1025.14 1056.88 1025.62C1056.59 1026.11 1056.39 1026.68 1056.25 1027.33C1056.12 1027.97 1056.06 1028.67 1056.06 1029.42ZM1078.27 1038.31C1076.98 1038.31 1075.83 1038.1 1074.81 1037.69C1073.79 1037.27 1072.92 1036.69 1072.2 1035.95C1071.49 1035.2 1070.95 1034.33 1070.56 1033.34C1070.19 1032.34 1070 1031.27 1070 1030.12V1029.5C1070 1028.2 1070.19 1027.02 1070.56 1025.95C1070.94 1024.88 1071.47 1023.96 1072.16 1023.19C1072.84 1022.42 1073.67 1021.82 1074.62 1021.41C1075.58 1020.99 1076.64 1020.78 1077.8 1020.78C1078.99 1020.78 1080.05 1020.98 1080.97 1021.39C1081.89 1021.79 1082.65 1022.35 1083.27 1023.08C1083.88 1023.81 1084.34 1024.68 1084.66 1025.7C1084.97 1026.71 1085.12 1027.83 1085.12 1029.06V1030.8H1071.88V1027.95H1081.06V1027.64C1081.04 1026.98 1080.92 1026.39 1080.69 1025.84C1080.46 1025.29 1080.1 1024.85 1079.62 1024.53C1079.15 1024.2 1078.53 1024.03 1077.77 1024.03C1077.15 1024.03 1076.61 1024.17 1076.16 1024.44C1075.71 1024.7 1075.33 1025.07 1075.03 1025.56C1074.74 1026.04 1074.52 1026.61 1074.38 1027.28C1074.23 1027.95 1074.16 1028.69 1074.16 1029.5V1030.12C1074.16 1030.83 1074.25 1031.49 1074.44 1032.09C1074.64 1032.7 1074.92 1033.22 1075.3 1033.67C1075.68 1034.11 1076.14 1034.45 1076.67 1034.7C1077.21 1034.94 1077.83 1035.06 1078.52 1035.06C1079.38 1035.06 1080.16 1034.9 1080.86 1034.56C1081.57 1034.22 1082.18 1033.71 1082.7 1033.05L1084.78 1035.2C1084.43 1035.72 1083.95 1036.22 1083.34 1036.7C1082.75 1037.18 1082.03 1037.57 1081.19 1037.88C1080.34 1038.17 1079.37 1038.31 1078.27 1038.31ZM1092 1024.56V1038H1087.88V1021.09H1091.77L1092 1024.56ZM1091.39 1028.94H1090.12C1090.12 1027.76 1090.27 1026.68 1090.55 1025.69C1090.84 1024.7 1091.27 1023.84 1091.83 1023.11C1092.39 1022.37 1093.08 1021.8 1093.91 1021.39C1094.74 1020.98 1095.7 1020.78 1096.8 1020.78C1097.56 1020.78 1098.26 1020.9 1098.89 1021.12C1099.53 1021.34 1100.07 1021.69 1100.53 1022.17C1101 1022.64 1101.36 1023.26 1101.61 1024.02C1101.86 1024.77 1101.98 1025.67 1101.98 1026.72V1038H1097.86V1027.14C1097.86 1026.35 1097.74 1025.73 1097.52 1025.28C1097.3 1024.83 1096.98 1024.52 1096.56 1024.34C1096.15 1024.16 1095.65 1024.06 1095.06 1024.06C1094.42 1024.06 1093.86 1024.19 1093.39 1024.45C1092.93 1024.7 1092.55 1025.05 1092.25 1025.5C1091.96 1025.95 1091.74 1026.46 1091.59 1027.05C1091.46 1027.63 1091.39 1028.26 1091.39 1028.94ZM1101.67 1028.17L1099.97 1028.48C1099.98 1027.42 1100.12 1026.43 1100.41 1025.5C1100.69 1024.56 1101.1 1023.74 1101.64 1023.05C1102.19 1022.34 1102.88 1021.79 1103.69 1021.39C1104.51 1020.98 1105.46 1020.78 1106.53 1020.78C1107.36 1020.78 1108.11 1020.9 1108.78 1021.14C1109.46 1021.37 1110.04 1021.74 1110.52 1022.25C1110.99 1022.75 1111.36 1023.4 1111.61 1024.2C1111.87 1025.01 1112 1025.98 1112 1027.14V1038H1107.84V1027.12C1107.84 1026.3 1107.73 1025.67 1107.5 1025.23C1107.28 1024.8 1106.96 1024.49 1106.55 1024.33C1106.13 1024.15 1105.64 1024.06 1105.08 1024.06C1104.51 1024.06 1104.01 1024.17 1103.58 1024.39C1103.16 1024.6 1102.81 1024.89 1102.52 1025.27C1102.23 1025.64 1102.02 1026.08 1101.88 1026.58C1101.74 1027.07 1101.67 1027.6 1101.67 1028.17ZM1120.66 1036.12L1125.19 1021.09H1129.61L1122.83 1040.56C1122.67 1040.98 1122.47 1041.43 1122.22 1041.92C1121.98 1042.41 1121.66 1042.88 1121.25 1043.31C1120.84 1043.76 1120.33 1044.12 1119.72 1044.41C1119.11 1044.69 1118.38 1044.83 1117.52 1044.83C1117.14 1044.83 1116.81 1044.8 1116.52 1044.75C1116.22 1044.7 1115.92 1044.63 1115.59 1044.55V1041.45C1115.7 1041.46 1115.82 1041.47 1115.95 1041.47C1116.1 1041.48 1116.22 1041.48 1116.33 1041.48C1116.93 1041.48 1117.43 1041.41 1117.83 1041.27C1118.22 1041.13 1118.54 1040.91 1118.78 1040.59C1119.03 1040.29 1119.24 1039.9 1119.41 1039.41L1120.66 1036.12ZM1118.42 1021.09L1122.25 1033.55L1122.92 1037.91L1120.08 1038.42L1113.97 1021.09H1118.42Z" fill="black"/>
<g clip-path="url(#clip3_1634_9738)">
<path d="M1222.5 1009.5C1219.66 1008.65 1216.71 1008.22 1213.75 1008.25C1208.87 1008.25 1203.63 1009.25 1200 1012C1196.38 1009.25 1191.13 1008.25 1186.25 1008.25C1181.38 1008.25 1176.13 1009.25 1172.5 1012V1048.62C1172.5 1049.25 1173.13 1049.87 1173.75 1049.87C1174 1049.87 1174.12 1049.75 1174.38 1049.75C1178.11 1048.04 1182.15 1047.11 1186.25 1047C1191.13 1047 1196.38 1048 1200 1050.75C1203.38 1048.62 1209.5 1047 1213.75 1047C1217.88 1047 1222.13 1047.75 1225.63 1049.62C1225.88 1049.75 1226 1049.75 1226.25 1049.75C1226.88 1049.75 1227.5 1049.12 1227.5 1048.5V1012C1225.98 1010.9 1224.29 1010.05 1222.5 1009.5ZM1222.5 1043.25C1219.75 1042.37 1216.75 1042 1213.75 1042C1209.5 1042 1203.38 1043.62 1200 1045.75V1017C1203.38 1014.87 1209.5 1013.25 1213.75 1013.25C1216.75 1013.25 1219.75 1013.62 1222.5 1014.5V1043.25Z" fill="#1D1D3D"/>
<path d="M1213.75 1023.25C1215.95 1023.25 1218.08 1023.48 1220 1023.9V1020.1C1217.94 1019.71 1215.85 1019.51 1213.75 1019.5C1209.5 1019.5 1205.65 1020.22 1202.5 1021.57V1025.72C1205.98 1023.97 1209.85 1023.12 1213.75 1023.25ZM1202.5 1028.22V1032.37C1205.98 1030.62 1209.85 1029.77 1213.75 1029.9C1215.95 1029.9 1218.08 1030.13 1220 1030.55V1026.75C1217.94 1026.36 1215.85 1026.16 1213.75 1026.15C1209.5 1026.15 1205.65 1026.9 1202.5 1028.22ZM1213.75 1032.82C1209.5 1032.82 1205.65 1033.55 1202.5 1034.9V1039.05C1205.98 1037.29 1209.85 1036.44 1213.75 1036.57C1215.95 1036.57 1218.08 1036.8 1220 1037.23V1033.42C1217.94 1033.02 1215.85 1032.82 1213.75 1032.82Z" fill="#1D1D3D"/>
</g>
<path d="M1249.08 1032.09C1249.08 1031.66 1249.01 1031.27 1248.88 1030.92C1248.75 1030.57 1248.52 1030.25 1248.17 1029.97C1247.84 1029.68 1247.36 1029.4 1246.75 1029.12C1246.15 1028.84 1245.36 1028.55 1244.41 1028.25C1243.34 1027.92 1242.35 1027.54 1241.44 1027.12C1240.52 1026.71 1239.71 1026.22 1239.02 1025.67C1238.33 1025.12 1237.79 1024.48 1237.41 1023.77C1237.02 1023.04 1236.83 1022.19 1236.83 1021.23C1236.83 1020.3 1237.03 1019.44 1237.42 1018.67C1237.83 1017.9 1238.4 1017.24 1239.14 1016.69C1239.88 1016.12 1240.75 1015.69 1241.75 1015.39C1242.76 1015.09 1243.88 1014.94 1245.09 1014.94C1246.78 1014.94 1248.24 1015.24 1249.47 1015.86C1250.71 1016.47 1251.67 1017.31 1252.34 1018.36C1253.02 1019.41 1253.36 1020.59 1253.36 1021.91H1249.08C1249.08 1021.2 1248.93 1020.57 1248.62 1020.03C1248.33 1019.49 1247.89 1019.06 1247.28 1018.75C1246.69 1018.44 1245.94 1018.28 1245.03 1018.28C1244.16 1018.28 1243.43 1018.41 1242.84 1018.67C1242.27 1018.93 1241.84 1019.29 1241.55 1019.73C1241.27 1020.18 1241.12 1020.68 1241.12 1021.23C1241.12 1021.65 1241.22 1022.03 1241.42 1022.36C1241.62 1022.68 1241.92 1022.99 1242.31 1023.28C1242.71 1023.56 1243.2 1023.83 1243.78 1024.08C1244.38 1024.32 1245.06 1024.56 1245.84 1024.8C1247.09 1025.17 1248.19 1025.59 1249.12 1026.05C1250.07 1026.51 1250.86 1027.03 1251.48 1027.61C1252.12 1028.19 1252.59 1028.85 1252.91 1029.58C1253.23 1030.31 1253.39 1031.14 1253.39 1032.06C1253.39 1033.04 1253.2 1033.92 1252.81 1034.69C1252.43 1035.46 1251.88 1036.11 1251.16 1036.66C1250.44 1037.2 1249.57 1037.61 1248.56 1037.89C1247.56 1038.17 1246.44 1038.31 1245.2 1038.31C1244.1 1038.31 1243.01 1038.17 1241.92 1037.88C1240.85 1037.57 1239.88 1037.12 1239 1036.53C1238.12 1035.93 1237.43 1035.17 1236.91 1034.25C1236.39 1033.32 1236.12 1032.24 1236.12 1031H1240.44C1240.44 1031.72 1240.55 1032.33 1240.78 1032.84C1241.02 1033.34 1241.35 1033.76 1241.78 1034.08C1242.22 1034.39 1242.73 1034.62 1243.31 1034.77C1243.9 1034.91 1244.53 1034.98 1245.2 1034.98C1246.08 1034.98 1246.8 1034.86 1247.36 1034.62C1247.93 1034.38 1248.36 1034.03 1248.64 1033.59C1248.93 1033.16 1249.08 1032.66 1249.08 1032.09ZM1260.77 1021.09V1038H1256.62V1021.09H1260.77ZM1256.34 1016.67C1256.34 1016.06 1256.55 1015.55 1256.97 1015.14C1257.4 1014.73 1257.97 1014.53 1258.69 1014.53C1259.41 1014.53 1259.97 1014.73 1260.39 1015.14C1260.82 1015.55 1261.03 1016.06 1261.03 1016.67C1261.03 1017.28 1260.82 1017.78 1260.39 1018.19C1259.97 1018.59 1259.41 1018.8 1258.69 1018.8C1257.97 1018.8 1257.4 1018.59 1256.97 1018.19C1256.55 1017.78 1256.34 1017.28 1256.34 1016.67ZM1275.45 1021.09H1279.2V1037.48C1279.2 1039.02 1278.87 1040.31 1278.2 1041.38C1277.55 1042.45 1276.62 1043.26 1275.44 1043.81C1274.25 1044.38 1272.87 1044.66 1271.3 1044.66C1270.62 1044.66 1269.89 1044.56 1269.09 1044.38C1268.31 1044.19 1267.56 1043.89 1266.83 1043.48C1266.11 1043.09 1265.51 1042.57 1265.03 1041.94L1266.89 1039.5C1267.45 1040.16 1268.09 1040.65 1268.8 1040.98C1269.51 1041.33 1270.27 1041.5 1271.09 1041.5C1271.93 1041.5 1272.64 1041.34 1273.22 1041.03C1273.81 1040.73 1274.27 1040.28 1274.58 1039.69C1274.9 1039.1 1275.06 1038.39 1275.06 1037.53V1024.95L1275.45 1021.09ZM1264.03 1029.75V1029.42C1264.03 1028.13 1264.19 1026.96 1264.5 1025.91C1264.81 1024.84 1265.26 1023.93 1265.84 1023.17C1266.44 1022.41 1267.15 1021.82 1267.98 1021.41C1268.83 1020.99 1269.78 1020.78 1270.83 1020.78C1271.94 1020.78 1272.88 1020.98 1273.64 1021.39C1274.41 1021.8 1275.05 1022.38 1275.55 1023.12C1276.06 1023.88 1276.45 1024.77 1276.73 1025.8C1277.03 1026.82 1277.25 1027.94 1277.41 1029.17V1030.06C1277.26 1031.26 1277.03 1032.36 1276.7 1033.36C1276.39 1034.36 1275.97 1035.23 1275.45 1035.98C1274.93 1036.72 1274.29 1037.3 1273.52 1037.7C1272.74 1038.11 1271.84 1038.31 1270.8 1038.31C1269.76 1038.31 1268.82 1038.1 1267.98 1037.67C1267.15 1037.24 1266.44 1036.65 1265.84 1035.88C1265.26 1035.1 1264.81 1034.2 1264.5 1033.16C1264.19 1032.11 1264.03 1030.98 1264.03 1029.75ZM1268.16 1029.42V1029.75C1268.16 1030.48 1268.23 1031.16 1268.38 1031.8C1268.52 1032.43 1268.74 1032.99 1269.05 1033.48C1269.35 1033.96 1269.73 1034.34 1270.19 1034.61C1270.65 1034.88 1271.19 1035.02 1271.83 1035.02C1272.68 1035.02 1273.38 1034.84 1273.92 1034.48C1274.47 1034.12 1274.89 1033.62 1275.17 1033C1275.46 1032.36 1275.65 1031.65 1275.73 1030.86V1028.41C1275.68 1027.78 1275.57 1027.2 1275.39 1026.67C1275.22 1026.14 1274.99 1025.68 1274.69 1025.3C1274.39 1024.91 1274 1024.61 1273.53 1024.39C1273.06 1024.17 1272.51 1024.06 1271.86 1024.06C1271.23 1024.06 1270.69 1024.2 1270.22 1024.48C1269.75 1024.76 1269.36 1025.14 1269.06 1025.62C1268.76 1026.11 1268.53 1026.68 1268.38 1027.33C1268.23 1027.97 1268.16 1028.67 1268.16 1029.42ZM1287.05 1024.55V1038H1282.92V1021.09H1286.83L1287.05 1024.55ZM1292.19 1020.98L1292.12 1024.83C1291.9 1024.79 1291.64 1024.76 1291.34 1024.73C1291.06 1024.71 1290.8 1024.7 1290.55 1024.7C1289.91 1024.7 1289.35 1024.79 1288.88 1024.97C1288.4 1025.14 1287.99 1025.38 1287.67 1025.7C1287.36 1026.03 1287.12 1026.42 1286.95 1026.89C1286.79 1027.35 1286.69 1027.87 1286.67 1028.45L1285.78 1028.34C1285.78 1027.27 1285.89 1026.28 1286.11 1025.36C1286.33 1024.44 1286.65 1023.64 1287.06 1022.95C1287.48 1022.27 1288 1021.73 1288.62 1021.36C1289.26 1020.97 1289.99 1020.78 1290.81 1020.78C1291.04 1020.78 1291.29 1020.8 1291.55 1020.84C1291.82 1020.88 1292.03 1020.92 1292.19 1020.98ZM1298.83 1021.09V1038H1294.69V1021.09H1298.83ZM1294.41 1016.67C1294.41 1016.06 1294.61 1015.55 1295.03 1015.14C1295.46 1014.73 1296.03 1014.53 1296.75 1014.53C1297.47 1014.53 1298.04 1014.73 1298.45 1015.14C1298.88 1015.55 1299.09 1016.06 1299.09 1016.67C1299.09 1017.28 1298.88 1017.78 1298.45 1018.19C1298.04 1018.59 1297.47 1018.8 1296.75 1018.8C1296.03 1018.8 1295.46 1018.59 1295.03 1018.19C1294.61 1017.78 1294.41 1017.28 1294.41 1016.67ZM1312.91 1034.41V1014H1317.06V1038H1313.31L1312.91 1034.41ZM1302.05 1029.75V1029.42C1302.05 1028.13 1302.19 1026.96 1302.48 1025.91C1302.79 1024.84 1303.22 1023.93 1303.8 1023.17C1304.37 1022.41 1305.06 1021.82 1305.88 1021.41C1306.7 1020.99 1307.63 1020.78 1308.67 1020.78C1309.68 1020.78 1310.56 1020.98 1311.31 1021.39C1312.07 1021.8 1312.72 1022.38 1313.25 1023.12C1313.79 1023.88 1314.22 1024.77 1314.55 1025.8C1314.87 1026.82 1315.1 1027.94 1315.25 1029.17V1030.06C1315.1 1031.26 1314.87 1032.36 1314.55 1033.36C1314.22 1034.36 1313.79 1035.23 1313.25 1035.98C1312.72 1036.72 1312.07 1037.3 1311.31 1037.7C1310.55 1038.11 1309.66 1038.31 1308.64 1038.31C1307.61 1038.31 1306.68 1038.1 1305.86 1037.67C1305.05 1037.24 1304.35 1036.65 1303.78 1035.88C1303.22 1035.1 1302.79 1034.2 1302.48 1033.16C1302.19 1032.11 1302.05 1030.98 1302.05 1029.75ZM1306.19 1029.42V1029.75C1306.19 1030.48 1306.25 1031.16 1306.38 1031.8C1306.5 1032.43 1306.7 1032.99 1306.98 1033.48C1307.27 1033.96 1307.62 1034.34 1308.06 1034.61C1308.51 1034.88 1309.05 1035.02 1309.69 1035.02C1310.5 1035.02 1311.17 1034.84 1311.69 1034.48C1312.22 1034.12 1312.63 1033.62 1312.92 1033C1313.21 1032.36 1313.4 1031.65 1313.48 1030.86V1028.41C1313.44 1027.78 1313.33 1027.2 1313.16 1026.67C1312.99 1026.14 1312.75 1025.68 1312.44 1025.3C1312.14 1024.91 1311.76 1024.61 1311.31 1024.39C1310.86 1024.17 1310.33 1024.06 1309.72 1024.06C1309.08 1024.06 1308.54 1024.2 1308.09 1024.48C1307.65 1024.76 1307.28 1025.14 1307 1025.62C1306.72 1026.11 1306.51 1026.68 1306.38 1027.33C1306.25 1027.97 1306.19 1028.67 1306.19 1029.42ZM1338.91 1034.41V1014H1343.06V1038H1339.31L1338.91 1034.41ZM1328.05 1029.75V1029.42C1328.05 1028.13 1328.19 1026.96 1328.48 1025.91C1328.79 1024.84 1329.22 1023.93 1329.8 1023.17C1330.37 1022.41 1331.06 1021.82 1331.88 1021.41C1332.7 1020.99 1333.63 1020.78 1334.67 1020.78C1335.68 1020.78 1336.56 1020.98 1337.31 1021.39C1338.07 1021.8 1338.72 1022.38 1339.25 1023.12C1339.79 1023.88 1340.22 1024.77 1340.55 1025.8C1340.87 1026.82 1341.1 1027.94 1341.25 1029.17V1030.06C1341.1 1031.26 1340.87 1032.36 1340.55 1033.36C1340.22 1034.36 1339.79 1035.23 1339.25 1035.98C1338.72 1036.72 1338.07 1037.3 1337.31 1037.7C1336.55 1038.11 1335.66 1038.31 1334.64 1038.31C1333.61 1038.31 1332.68 1038.1 1331.86 1037.67C1331.05 1037.24 1330.35 1036.65 1329.78 1035.88C1329.22 1035.1 1328.79 1034.2 1328.48 1033.16C1328.19 1032.11 1328.05 1030.98 1328.05 1029.75ZM1332.19 1029.42V1029.75C1332.19 1030.48 1332.25 1031.16 1332.38 1031.8C1332.5 1032.43 1332.7 1032.99 1332.98 1033.48C1333.27 1033.96 1333.62 1034.34 1334.06 1034.61C1334.51 1034.88 1335.05 1035.02 1335.69 1035.02C1336.5 1035.02 1337.17 1034.84 1337.69 1034.48C1338.22 1034.12 1338.63 1033.62 1338.92 1033C1339.21 1032.36 1339.4 1031.65 1339.48 1030.86V1028.41C1339.44 1027.78 1339.33 1027.2 1339.16 1026.67C1338.99 1026.14 1338.75 1025.68 1338.44 1025.3C1338.14 1024.91 1337.76 1024.61 1337.31 1024.39C1336.86 1024.17 1336.33 1024.06 1335.72 1024.06C1335.08 1024.06 1334.54 1024.2 1334.09 1024.48C1333.65 1024.76 1333.28 1025.14 1333 1025.62C1332.72 1026.11 1332.51 1026.68 1332.38 1027.33C1332.25 1027.97 1332.19 1028.67 1332.19 1029.42ZM1346.06 1029.72V1029.39C1346.06 1028.15 1346.24 1027.01 1346.59 1025.97C1346.95 1024.92 1347.46 1024.01 1348.14 1023.23C1348.82 1022.46 1349.65 1021.86 1350.62 1021.44C1351.6 1021 1352.72 1020.78 1353.97 1020.78C1355.24 1020.78 1356.36 1021 1357.34 1021.44C1358.33 1021.86 1359.17 1022.46 1359.84 1023.23C1360.52 1024.01 1361.04 1024.92 1361.39 1025.97C1361.74 1027.01 1361.92 1028.15 1361.92 1029.39V1029.72C1361.92 1030.95 1361.74 1032.09 1361.39 1033.14C1361.04 1034.18 1360.52 1035.09 1359.84 1035.88C1359.17 1036.65 1358.34 1037.24 1357.36 1037.67C1356.38 1038.1 1355.26 1038.31 1354 1038.31C1352.75 1038.31 1351.63 1038.1 1350.64 1037.67C1349.65 1037.24 1348.82 1036.65 1348.14 1035.88C1347.46 1035.09 1346.95 1034.18 1346.59 1033.14C1346.24 1032.09 1346.06 1030.95 1346.06 1029.72ZM1350.19 1029.39V1029.72C1350.19 1030.46 1350.26 1031.15 1350.41 1031.8C1350.55 1032.44 1350.78 1033.01 1351.08 1033.5C1351.38 1033.99 1351.77 1034.38 1352.25 1034.66C1352.74 1034.93 1353.32 1035.06 1354 1035.06C1354.67 1035.06 1355.24 1034.93 1355.72 1034.66C1356.2 1034.38 1356.59 1033.99 1356.89 1033.5C1357.2 1033.01 1357.43 1032.44 1357.58 1031.8C1357.72 1031.15 1357.8 1030.46 1357.8 1029.72V1029.39C1357.8 1028.66 1357.72 1027.98 1357.58 1027.34C1357.43 1026.7 1357.2 1026.13 1356.89 1025.64C1356.59 1025.14 1356.19 1024.75 1355.7 1024.47C1355.22 1024.18 1354.65 1024.03 1353.97 1024.03C1353.3 1024.03 1352.73 1024.18 1352.25 1024.47C1351.77 1024.75 1351.38 1025.14 1351.08 1025.64C1350.78 1026.13 1350.55 1026.7 1350.41 1027.34C1350.26 1027.98 1350.19 1028.66 1350.19 1029.39ZM1371.86 1035.06C1372.44 1035.06 1372.96 1034.95 1373.42 1034.72C1373.88 1034.49 1374.24 1034.17 1374.52 1033.75C1374.8 1033.33 1374.95 1032.85 1374.97 1032.3H1378.86C1378.84 1033.44 1378.52 1034.47 1377.89 1035.38C1377.27 1036.28 1376.43 1037 1375.39 1037.53C1374.36 1038.05 1373.2 1038.31 1371.92 1038.31C1370.62 1038.31 1369.48 1038.09 1368.52 1037.66C1367.55 1037.22 1366.74 1036.61 1366.09 1035.83C1365.46 1035.05 1364.98 1034.14 1364.66 1033.11C1364.34 1032.08 1364.19 1030.97 1364.19 1029.8V1029.3C1364.19 1028.12 1364.34 1027.02 1364.66 1025.98C1364.98 1024.95 1365.46 1024.05 1366.09 1023.27C1366.74 1022.48 1367.55 1021.88 1368.52 1021.44C1369.48 1021 1370.61 1020.78 1371.91 1020.78C1373.27 1020.78 1374.47 1021.05 1375.5 1021.58C1376.54 1022.11 1377.35 1022.86 1377.94 1023.83C1378.53 1024.8 1378.84 1025.94 1378.86 1027.25H1374.97C1374.95 1026.65 1374.81 1026.1 1374.56 1025.62C1374.31 1025.15 1373.96 1024.76 1373.5 1024.47C1373.04 1024.18 1372.48 1024.03 1371.83 1024.03C1371.13 1024.03 1370.55 1024.18 1370.08 1024.47C1369.62 1024.76 1369.26 1025.16 1369 1025.67C1368.75 1026.17 1368.57 1026.73 1368.47 1027.36C1368.38 1027.97 1368.33 1028.62 1368.33 1029.3V1029.8C1368.33 1030.48 1368.38 1031.14 1368.47 1031.77C1368.57 1032.39 1368.75 1032.95 1369 1033.45C1369.26 1033.94 1369.62 1034.33 1370.08 1034.62C1370.55 1034.92 1371.14 1035.06 1371.86 1035.06ZM1391.67 1033.98V1021.09H1395.83V1038H1391.92L1391.67 1033.98ZM1392.2 1030.48L1393.48 1030.45C1393.48 1031.59 1393.36 1032.64 1393.11 1033.59C1392.86 1034.55 1392.47 1035.39 1391.94 1036.09C1391.42 1036.79 1390.76 1037.34 1389.95 1037.73C1389.15 1038.12 1388.2 1038.31 1387.11 1038.31C1386.28 1038.31 1385.52 1038.2 1384.83 1037.97C1384.14 1037.73 1383.55 1037.36 1383.05 1036.86C1382.56 1036.35 1382.18 1035.7 1381.91 1034.91C1381.64 1034.1 1381.5 1033.14 1381.5 1032.02V1021.09H1385.62V1032.05C1385.62 1032.61 1385.69 1033.08 1385.81 1033.45C1385.95 1033.83 1386.13 1034.14 1386.36 1034.38C1386.6 1034.6 1386.88 1034.77 1387.19 1034.88C1387.51 1034.97 1387.85 1035.02 1388.22 1035.02C1389.22 1035.02 1390.01 1034.82 1390.58 1034.42C1391.16 1034.02 1391.58 1033.47 1391.83 1032.8C1392.08 1032.11 1392.2 1031.34 1392.2 1030.48ZM1403.59 1024.56V1038H1399.47V1021.09H1403.36L1403.59 1024.56ZM1402.98 1028.94H1401.72C1401.72 1027.76 1401.86 1026.68 1402.14 1025.69C1402.43 1024.7 1402.86 1023.84 1403.42 1023.11C1403.98 1022.37 1404.68 1021.8 1405.5 1021.39C1406.33 1020.98 1407.3 1020.78 1408.39 1020.78C1409.15 1020.78 1409.85 1020.9 1410.48 1021.12C1411.12 1021.34 1411.67 1021.69 1412.12 1022.17C1412.59 1022.64 1412.95 1023.26 1413.2 1024.02C1413.45 1024.77 1413.58 1025.67 1413.58 1026.72V1038H1409.45V1027.14C1409.45 1026.35 1409.34 1025.73 1409.11 1025.28C1408.89 1024.83 1408.57 1024.52 1408.16 1024.34C1407.74 1024.16 1407.24 1024.06 1406.66 1024.06C1406.01 1024.06 1405.45 1024.19 1404.98 1024.45C1404.53 1024.7 1404.15 1025.05 1403.84 1025.5C1403.55 1025.95 1403.33 1026.46 1403.19 1027.05C1403.05 1027.63 1402.98 1028.26 1402.98 1028.94ZM1413.27 1028.17L1411.56 1028.48C1411.57 1027.42 1411.72 1026.43 1412 1025.5C1412.28 1024.56 1412.69 1023.74 1413.23 1023.05C1413.79 1022.34 1414.47 1021.79 1415.28 1021.39C1416.1 1020.98 1417.05 1020.78 1418.12 1020.78C1418.96 1020.78 1419.71 1020.9 1420.38 1021.14C1421.05 1021.37 1421.63 1021.74 1422.11 1022.25C1422.59 1022.75 1422.95 1023.4 1423.2 1024.2C1423.46 1025.01 1423.59 1025.98 1423.59 1027.14V1038H1419.44V1027.12C1419.44 1026.3 1419.32 1025.67 1419.09 1025.23C1418.88 1024.8 1418.56 1024.49 1418.14 1024.33C1417.72 1024.15 1417.23 1024.06 1416.67 1024.06C1416.1 1024.06 1415.6 1024.17 1415.17 1024.39C1414.76 1024.6 1414.4 1024.89 1414.11 1025.27C1413.83 1025.64 1413.61 1026.08 1413.47 1026.58C1413.33 1027.07 1413.27 1027.6 1413.27 1028.17ZM1434.89 1038.31C1433.61 1038.31 1432.46 1038.1 1431.44 1037.69C1430.42 1037.27 1429.55 1036.69 1428.83 1035.95C1428.12 1035.2 1427.57 1034.33 1427.19 1033.34C1426.81 1032.34 1426.62 1031.27 1426.62 1030.12V1029.5C1426.62 1028.2 1426.81 1027.02 1427.19 1025.95C1427.56 1024.88 1428.09 1023.96 1428.78 1023.19C1429.47 1022.42 1430.29 1021.82 1431.25 1021.41C1432.21 1020.99 1433.27 1020.78 1434.42 1020.78C1435.62 1020.78 1436.68 1020.98 1437.59 1021.39C1438.51 1021.79 1439.28 1022.35 1439.89 1023.08C1440.51 1023.81 1440.97 1024.68 1441.28 1025.7C1441.59 1026.71 1441.75 1027.83 1441.75 1029.06V1030.8H1428.5V1027.95H1437.69V1027.64C1437.67 1026.98 1437.54 1026.39 1437.31 1025.84C1437.08 1025.29 1436.73 1024.85 1436.25 1024.53C1435.77 1024.2 1435.15 1024.03 1434.39 1024.03C1433.78 1024.03 1433.24 1024.17 1432.78 1024.44C1432.33 1024.7 1431.96 1025.07 1431.66 1025.56C1431.36 1026.04 1431.15 1026.61 1431 1027.28C1430.85 1027.95 1430.78 1028.69 1430.78 1029.5V1030.12C1430.78 1030.83 1430.88 1031.49 1431.06 1032.09C1431.26 1032.7 1431.55 1033.22 1431.92 1033.67C1432.31 1034.11 1432.77 1034.45 1433.3 1034.7C1433.84 1034.94 1434.45 1035.06 1435.14 1035.06C1436.01 1035.06 1436.79 1034.9 1437.48 1034.56C1438.19 1034.22 1438.81 1033.71 1439.33 1033.05L1441.41 1035.2C1441.05 1035.72 1440.57 1036.22 1439.97 1036.7C1439.38 1037.18 1438.66 1037.57 1437.81 1037.88C1436.97 1038.17 1435.99 1038.31 1434.89 1038.31ZM1448.56 1024.7V1038H1444.44V1021.09H1448.31L1448.56 1024.7ZM1447.91 1028.94H1446.69C1446.7 1027.71 1446.86 1026.59 1447.19 1025.59C1447.51 1024.59 1447.96 1023.73 1448.55 1023.02C1449.14 1022.3 1449.84 1021.74 1450.66 1021.36C1451.47 1020.97 1452.38 1020.78 1453.38 1020.78C1454.19 1020.78 1454.92 1020.9 1455.58 1021.12C1456.23 1021.35 1456.8 1021.72 1457.27 1022.22C1457.74 1022.72 1458.11 1023.38 1458.36 1024.19C1458.62 1024.99 1458.75 1025.98 1458.75 1027.16V1038H1454.59V1027.12C1454.59 1026.35 1454.48 1025.74 1454.25 1025.3C1454.03 1024.85 1453.71 1024.53 1453.28 1024.34C1452.86 1024.16 1452.35 1024.06 1451.73 1024.06C1451.1 1024.06 1450.54 1024.19 1450.06 1024.45C1449.59 1024.7 1449.2 1025.05 1448.88 1025.5C1448.56 1025.95 1448.32 1026.46 1448.16 1027.05C1447.99 1027.63 1447.91 1028.26 1447.91 1028.94ZM1470.39 1021.09V1024.06H1460.7V1021.09H1470.39ZM1463.3 1016.94H1467.44V1033.12C1467.44 1033.62 1467.51 1034.01 1467.64 1034.28C1467.78 1034.55 1467.98 1034.73 1468.25 1034.83C1468.52 1034.92 1468.84 1034.97 1469.22 1034.97C1469.49 1034.97 1469.74 1034.95 1469.97 1034.92C1470.2 1034.89 1470.39 1034.86 1470.55 1034.83L1470.56 1037.92C1470.22 1038.04 1469.83 1038.13 1469.39 1038.2C1468.96 1038.28 1468.48 1038.31 1467.94 1038.31C1467.01 1038.31 1466.2 1038.16 1465.5 1037.84C1464.8 1037.52 1464.26 1037.01 1463.88 1036.3C1463.49 1035.58 1463.3 1034.63 1463.3 1033.45V1016.94ZM1482.45 1034.41V1026.61C1482.45 1026.04 1482.35 1025.54 1482.16 1025.12C1481.96 1024.71 1481.66 1024.39 1481.25 1024.16C1480.84 1023.93 1480.33 1023.81 1479.7 1023.81C1479.15 1023.81 1478.67 1023.91 1478.25 1024.09C1477.84 1024.28 1477.53 1024.55 1477.31 1024.89C1477.09 1025.22 1476.98 1025.61 1476.98 1026.05H1472.84C1472.84 1025.35 1473.01 1024.69 1473.34 1024.06C1473.68 1023.43 1474.15 1022.86 1474.77 1022.38C1475.39 1021.88 1476.14 1021.48 1477 1021.2C1477.88 1020.92 1478.85 1020.78 1479.94 1020.78C1481.22 1020.78 1482.36 1021 1483.36 1021.44C1484.37 1021.86 1485.16 1022.51 1485.73 1023.38C1486.32 1024.24 1486.61 1025.33 1486.61 1026.64V1034.02C1486.61 1034.86 1486.66 1035.58 1486.77 1036.19C1486.88 1036.78 1487.05 1037.3 1487.27 1037.73V1038H1483.06C1482.86 1037.57 1482.71 1037.03 1482.61 1036.38C1482.51 1035.71 1482.45 1035.05 1482.45 1034.41ZM1483.03 1027.7L1483.06 1030.16H1480.45C1479.81 1030.16 1479.24 1030.22 1478.75 1030.36C1478.26 1030.48 1477.86 1030.67 1477.55 1030.92C1477.23 1031.16 1477 1031.45 1476.84 1031.8C1476.69 1032.13 1476.61 1032.51 1476.61 1032.94C1476.61 1033.35 1476.7 1033.73 1476.89 1034.06C1477.09 1034.4 1477.37 1034.66 1477.73 1034.86C1478.11 1035.05 1478.55 1035.14 1479.05 1035.14C1479.78 1035.14 1480.41 1034.99 1480.95 1034.7C1481.49 1034.4 1481.92 1034.04 1482.22 1033.61C1482.52 1033.18 1482.68 1032.78 1482.7 1032.39L1483.89 1034.17C1483.74 1034.6 1483.53 1035.05 1483.23 1035.53C1482.94 1036.01 1482.57 1036.46 1482.11 1036.88C1481.65 1037.29 1481.1 1037.64 1480.45 1037.91C1479.81 1038.18 1479.06 1038.31 1478.2 1038.31C1477.11 1038.31 1476.13 1038.09 1475.27 1037.66C1474.4 1037.22 1473.72 1036.62 1473.22 1035.86C1472.72 1035.1 1472.47 1034.23 1472.47 1033.27C1472.47 1032.37 1472.64 1031.58 1472.97 1030.89C1473.3 1030.2 1473.8 1029.62 1474.45 1029.16C1475.11 1028.68 1475.92 1028.32 1476.89 1028.08C1477.87 1027.83 1478.99 1027.7 1480.25 1027.7H1483.03ZM1498.33 1021.09V1024.06H1488.64V1021.09H1498.33ZM1491.23 1016.94H1495.38V1033.12C1495.38 1033.62 1495.44 1034.01 1495.58 1034.28C1495.71 1034.55 1495.92 1034.73 1496.19 1034.83C1496.46 1034.92 1496.78 1034.97 1497.16 1034.97C1497.43 1034.97 1497.68 1034.95 1497.91 1034.92C1498.14 1034.89 1498.33 1034.86 1498.48 1034.83L1498.5 1037.92C1498.16 1038.04 1497.77 1038.13 1497.33 1038.2C1496.9 1038.28 1496.42 1038.31 1495.88 1038.31C1494.95 1038.31 1494.14 1038.16 1493.44 1037.84C1492.74 1037.52 1492.2 1037.01 1491.81 1036.3C1491.43 1035.58 1491.23 1034.63 1491.23 1033.45V1016.94ZM1505.45 1021.09V1038H1501.31V1021.09H1505.45ZM1501.03 1016.67C1501.03 1016.06 1501.24 1015.55 1501.66 1015.14C1502.08 1014.73 1502.66 1014.53 1503.38 1014.53C1504.09 1014.53 1504.66 1014.73 1505.08 1015.14C1505.51 1015.55 1505.72 1016.06 1505.72 1016.67C1505.72 1017.28 1505.51 1017.78 1505.08 1018.19C1504.66 1018.59 1504.09 1018.8 1503.38 1018.8C1502.66 1018.8 1502.08 1018.59 1501.66 1018.19C1501.24 1017.78 1501.03 1017.28 1501.03 1016.67ZM1508.66 1029.72V1029.39C1508.66 1028.15 1508.83 1027.01 1509.19 1025.97C1509.54 1024.92 1510.06 1024.01 1510.73 1023.23C1511.41 1022.46 1512.24 1021.86 1513.22 1021.44C1514.2 1021 1515.31 1020.78 1516.56 1020.78C1517.83 1020.78 1518.96 1021 1519.94 1021.44C1520.93 1021.86 1521.76 1022.46 1522.44 1023.23C1523.11 1024.01 1523.63 1024.92 1523.98 1025.97C1524.34 1027.01 1524.52 1028.15 1524.52 1029.39V1029.72C1524.52 1030.95 1524.34 1032.09 1523.98 1033.14C1523.63 1034.18 1523.11 1035.09 1522.44 1035.88C1521.76 1036.65 1520.93 1037.24 1519.95 1037.67C1518.97 1038.1 1517.85 1038.31 1516.59 1038.31C1515.34 1038.31 1514.22 1038.1 1513.23 1037.67C1512.24 1037.24 1511.41 1036.65 1510.73 1035.88C1510.06 1035.09 1509.54 1034.18 1509.19 1033.14C1508.83 1032.09 1508.66 1030.95 1508.66 1029.72ZM1512.78 1029.39V1029.72C1512.78 1030.46 1512.85 1031.15 1513 1031.8C1513.15 1032.44 1513.37 1033.01 1513.67 1033.5C1513.97 1033.99 1514.36 1034.38 1514.84 1034.66C1515.33 1034.93 1515.92 1035.06 1516.59 1035.06C1517.26 1035.06 1517.83 1034.93 1518.31 1034.66C1518.79 1034.38 1519.18 1033.99 1519.48 1033.5C1519.8 1033.01 1520.03 1032.44 1520.17 1031.8C1520.32 1031.15 1520.39 1030.46 1520.39 1029.72V1029.39C1520.39 1028.66 1520.32 1027.98 1520.17 1027.34C1520.03 1026.7 1519.8 1026.13 1519.48 1025.64C1519.18 1025.14 1518.79 1024.75 1518.3 1024.47C1517.82 1024.18 1517.24 1024.03 1516.56 1024.03C1515.9 1024.03 1515.32 1024.18 1514.84 1024.47C1514.36 1024.75 1513.97 1025.14 1513.67 1025.64C1513.37 1026.13 1513.15 1026.7 1513 1027.34C1512.85 1027.98 1512.78 1028.66 1512.78 1029.39ZM1531.56 1024.7V1038H1527.44V1021.09H1531.31L1531.56 1024.7ZM1530.91 1028.94H1529.69C1529.7 1027.71 1529.86 1026.59 1530.19 1025.59C1530.51 1024.59 1530.96 1023.73 1531.55 1023.02C1532.14 1022.3 1532.84 1021.74 1533.66 1021.36C1534.47 1020.97 1535.38 1020.78 1536.38 1020.78C1537.19 1020.78 1537.92 1020.9 1538.58 1021.12C1539.23 1021.35 1539.8 1021.72 1540.27 1022.22C1540.74 1022.72 1541.11 1023.38 1541.36 1024.19C1541.62 1024.99 1541.75 1025.98 1541.75 1027.16V1038H1537.59V1027.12C1537.59 1026.35 1537.48 1025.74 1537.25 1025.3C1537.03 1024.85 1536.71 1024.53 1536.28 1024.34C1535.86 1024.16 1535.35 1024.06 1534.73 1024.06C1534.1 1024.06 1533.54 1024.19 1533.06 1024.45C1532.59 1024.7 1532.2 1025.05 1531.88 1025.5C1531.56 1025.95 1531.32 1026.46 1531.16 1027.05C1530.99 1027.63 1530.91 1028.26 1530.91 1028.94Z" fill="black"/>
<g clip-path="url(#clip4_1634_9738)">
<path d="M1614 1002C1600.2 1002 1589 1013.2 1589 1027C1589 1040.8 1600.2 1052 1614 1052C1627.8 1052 1639 1040.8 1639 1027C1639 1013.2 1627.8 1002 1614 1002ZM1616.5 1044.5H1611.5V1039.5H1616.5V1044.5ZM1621.67 1025.12L1619.42 1027.43C1617.62 1029.25 1616.5 1030.75 1616.5 1034.5H1611.5V1033.25C1611.5 1030.5 1612.62 1028 1614.42 1026.18L1617.52 1023.02C1618.45 1022.12 1619 1020.88 1619 1019.5C1619 1016.75 1616.75 1014.5 1614 1014.5C1611.25 1014.5 1609 1016.75 1609 1019.5H1604C1604 1013.97 1608.47 1009.5 1614 1009.5C1619.52 1009.5 1624 1013.97 1624 1019.5C1624 1021.7 1623.1 1023.7 1621.67 1025.12Z" fill="#1D1D3D"/>
</g>
<path d="M1664.48 1030.52H1668.78C1668.67 1032.04 1668.24 1033.39 1667.52 1034.56C1666.79 1035.73 1665.77 1036.65 1664.47 1037.31C1663.17 1037.98 1661.59 1038.31 1659.73 1038.31C1658.31 1038.31 1657.02 1038.06 1655.88 1037.56C1654.74 1037.05 1653.77 1036.33 1652.95 1035.39C1652.15 1034.44 1651.54 1033.31 1651.11 1031.98C1650.68 1030.65 1650.47 1029.16 1650.47 1027.5V1025.77C1650.47 1024.11 1650.69 1022.61 1651.12 1021.28C1651.56 1019.95 1652.19 1018.81 1653 1017.88C1653.82 1016.93 1654.81 1016.2 1655.95 1015.69C1657.11 1015.18 1658.4 1014.92 1659.83 1014.92C1661.68 1014.92 1663.25 1015.27 1664.53 1015.95C1665.81 1016.63 1666.81 1017.56 1667.52 1018.75C1668.22 1019.94 1668.65 1021.3 1668.8 1022.84H1664.5C1664.42 1021.89 1664.21 1021.07 1663.88 1020.41C1663.55 1019.74 1663.06 1019.23 1662.41 1018.89C1661.76 1018.54 1660.9 1018.36 1659.83 1018.36C1658.99 1018.36 1658.26 1018.52 1657.62 1018.83C1657 1019.14 1656.48 1019.61 1656.06 1020.23C1655.65 1020.85 1655.33 1021.62 1655.12 1022.55C1654.92 1023.46 1654.81 1024.53 1654.81 1025.73V1027.5C1654.81 1028.66 1654.91 1029.69 1655.09 1030.61C1655.28 1031.53 1655.57 1032.3 1655.97 1032.94C1656.36 1033.57 1656.88 1034.06 1657.5 1034.39C1658.12 1034.72 1658.87 1034.89 1659.73 1034.89C1660.79 1034.89 1661.64 1034.72 1662.3 1034.39C1662.96 1034.06 1663.47 1033.57 1663.81 1032.92C1664.17 1032.28 1664.39 1031.47 1664.48 1030.52ZM1671.06 1029.72V1029.39C1671.06 1028.15 1671.24 1027.01 1671.59 1025.97C1671.95 1024.92 1672.46 1024.01 1673.14 1023.23C1673.82 1022.46 1674.65 1021.86 1675.62 1021.44C1676.6 1021 1677.72 1020.78 1678.97 1020.78C1680.24 1020.78 1681.36 1021 1682.34 1021.44C1683.33 1021.86 1684.17 1022.46 1684.84 1023.23C1685.52 1024.01 1686.04 1024.92 1686.39 1025.97C1686.74 1027.01 1686.92 1028.15 1686.92 1029.39V1029.72C1686.92 1030.95 1686.74 1032.09 1686.39 1033.14C1686.04 1034.18 1685.52 1035.09 1684.84 1035.88C1684.17 1036.65 1683.34 1037.24 1682.36 1037.67C1681.38 1038.1 1680.26 1038.31 1679 1038.31C1677.75 1038.31 1676.63 1038.1 1675.64 1037.67C1674.65 1037.24 1673.82 1036.65 1673.14 1035.88C1672.46 1035.09 1671.95 1034.18 1671.59 1033.14C1671.24 1032.09 1671.06 1030.95 1671.06 1029.72ZM1675.19 1029.39V1029.72C1675.19 1030.46 1675.26 1031.15 1675.41 1031.8C1675.55 1032.44 1675.78 1033.01 1676.08 1033.5C1676.38 1033.99 1676.77 1034.38 1677.25 1034.66C1677.74 1034.93 1678.32 1035.06 1679 1035.06C1679.67 1035.06 1680.24 1034.93 1680.72 1034.66C1681.2 1034.38 1681.59 1033.99 1681.89 1033.5C1682.2 1033.01 1682.43 1032.44 1682.58 1031.8C1682.72 1031.15 1682.8 1030.46 1682.8 1029.72V1029.39C1682.8 1028.66 1682.72 1027.98 1682.58 1027.34C1682.43 1026.7 1682.2 1026.13 1681.89 1025.64C1681.59 1025.14 1681.19 1024.75 1680.7 1024.47C1680.22 1024.18 1679.65 1024.03 1678.97 1024.03C1678.3 1024.03 1677.73 1024.18 1677.25 1024.47C1676.77 1024.75 1676.38 1025.14 1676.08 1025.64C1675.78 1026.13 1675.55 1026.7 1675.41 1027.34C1675.26 1027.98 1675.19 1028.66 1675.19 1029.39ZM1693.97 1024.7V1038H1689.84V1021.09H1693.72L1693.97 1024.7ZM1693.31 1028.94H1692.09C1692.1 1027.71 1692.27 1026.59 1692.59 1025.59C1692.92 1024.59 1693.37 1023.73 1693.95 1023.02C1694.55 1022.3 1695.25 1021.74 1696.06 1021.36C1696.88 1020.97 1697.78 1020.78 1698.78 1020.78C1699.59 1020.78 1700.33 1020.9 1700.98 1021.12C1701.64 1021.35 1702.2 1021.72 1702.67 1022.22C1703.15 1022.72 1703.52 1023.38 1703.77 1024.19C1704.03 1024.99 1704.16 1025.98 1704.16 1027.16V1038H1700V1027.12C1700 1026.35 1699.89 1025.74 1699.66 1025.3C1699.44 1024.85 1699.11 1024.53 1698.69 1024.34C1698.27 1024.16 1697.76 1024.06 1697.14 1024.06C1696.51 1024.06 1695.95 1024.19 1695.47 1024.45C1695 1024.7 1694.6 1025.05 1694.28 1025.5C1693.97 1025.95 1693.73 1026.46 1693.56 1027.05C1693.4 1027.63 1693.31 1028.26 1693.31 1028.94ZM1715.8 1021.09V1024.06H1706.11V1021.09H1715.8ZM1708.7 1016.94H1712.84V1033.12C1712.84 1033.62 1712.91 1034.01 1713.05 1034.28C1713.18 1034.55 1713.39 1034.73 1713.66 1034.83C1713.93 1034.92 1714.25 1034.97 1714.62 1034.97C1714.9 1034.97 1715.15 1034.95 1715.38 1034.92C1715.6 1034.89 1715.8 1034.86 1715.95 1034.83L1715.97 1037.92C1715.62 1038.04 1715.23 1038.13 1714.8 1038.2C1714.37 1038.28 1713.89 1038.31 1713.34 1038.31C1712.42 1038.31 1711.6 1038.16 1710.91 1037.84C1710.21 1037.52 1709.67 1037.01 1709.28 1036.3C1708.9 1035.58 1708.7 1034.63 1708.7 1033.45V1016.94ZM1727.86 1034.41V1026.61C1727.86 1026.04 1727.76 1025.54 1727.56 1025.12C1727.36 1024.71 1727.06 1024.39 1726.66 1024.16C1726.25 1023.93 1725.73 1023.81 1725.11 1023.81C1724.56 1023.81 1724.07 1023.91 1723.66 1024.09C1723.25 1024.28 1722.94 1024.55 1722.72 1024.89C1722.5 1025.22 1722.39 1025.61 1722.39 1026.05H1718.25C1718.25 1025.35 1718.42 1024.69 1718.75 1024.06C1719.08 1023.43 1719.56 1022.86 1720.17 1022.38C1720.8 1021.88 1721.54 1021.48 1722.41 1021.2C1723.28 1020.92 1724.26 1020.78 1725.34 1020.78C1726.62 1020.78 1727.77 1021 1728.77 1021.44C1729.78 1021.86 1730.57 1022.51 1731.14 1023.38C1731.72 1024.24 1732.02 1025.33 1732.02 1026.64V1034.02C1732.02 1034.86 1732.07 1035.58 1732.17 1036.19C1732.29 1036.78 1732.45 1037.3 1732.67 1037.73V1038H1728.47C1728.27 1037.57 1728.12 1037.03 1728.02 1036.38C1727.91 1035.71 1727.86 1035.05 1727.86 1034.41ZM1728.44 1027.7L1728.47 1030.16H1725.86C1725.21 1030.16 1724.65 1030.22 1724.16 1030.36C1723.67 1030.48 1723.27 1030.67 1722.95 1030.92C1722.64 1031.16 1722.41 1031.45 1722.25 1031.8C1722.09 1032.13 1722.02 1032.51 1722.02 1032.94C1722.02 1033.35 1722.11 1033.73 1722.3 1034.06C1722.49 1034.4 1722.78 1034.66 1723.14 1034.86C1723.52 1035.05 1723.95 1035.14 1724.45 1035.14C1725.18 1035.14 1725.82 1034.99 1726.36 1034.7C1726.9 1034.4 1727.32 1034.04 1727.62 1033.61C1727.93 1033.18 1728.09 1032.78 1728.11 1032.39L1729.3 1034.17C1729.15 1034.6 1728.93 1035.05 1728.64 1035.53C1728.35 1036.01 1727.97 1036.46 1727.52 1036.88C1727.06 1037.29 1726.51 1037.64 1725.86 1037.91C1725.21 1038.18 1724.46 1038.31 1723.61 1038.31C1722.52 1038.31 1721.54 1038.09 1720.67 1037.66C1719.81 1037.22 1719.12 1036.62 1718.62 1035.86C1718.12 1035.1 1717.88 1034.23 1717.88 1033.27C1717.88 1032.37 1718.04 1031.58 1718.38 1030.89C1718.71 1030.2 1719.2 1029.62 1719.86 1029.16C1720.52 1028.68 1721.33 1028.32 1722.3 1028.08C1723.28 1027.83 1724.4 1027.7 1725.66 1027.7H1728.44ZM1742.67 1035.06C1743.26 1035.06 1743.78 1034.95 1744.23 1034.72C1744.69 1034.49 1745.06 1034.17 1745.33 1033.75C1745.61 1033.33 1745.76 1032.85 1745.78 1032.3H1749.67C1749.65 1033.44 1749.33 1034.47 1748.7 1035.38C1748.08 1036.28 1747.24 1037 1746.2 1037.53C1745.17 1038.05 1744.02 1038.31 1742.73 1038.31C1741.43 1038.31 1740.3 1038.09 1739.33 1037.66C1738.36 1037.22 1737.55 1036.61 1736.91 1035.83C1736.27 1035.05 1735.79 1034.14 1735.47 1033.11C1735.16 1032.08 1735 1030.97 1735 1029.8V1029.3C1735 1028.12 1735.16 1027.02 1735.47 1025.98C1735.79 1024.95 1736.27 1024.05 1736.91 1023.27C1737.55 1022.48 1738.36 1021.88 1739.33 1021.44C1740.3 1021 1741.43 1020.78 1742.72 1020.78C1744.08 1020.78 1745.28 1021.05 1746.31 1021.58C1747.35 1022.11 1748.17 1022.86 1748.75 1023.83C1749.34 1024.8 1749.65 1025.94 1749.67 1027.25H1745.78C1745.76 1026.65 1745.62 1026.1 1745.38 1025.62C1745.12 1025.15 1744.77 1024.76 1744.31 1024.47C1743.85 1024.18 1743.3 1024.03 1742.64 1024.03C1741.94 1024.03 1741.36 1024.18 1740.89 1024.47C1740.43 1024.76 1740.07 1025.16 1739.81 1025.67C1739.56 1026.17 1739.39 1026.73 1739.28 1027.36C1739.19 1027.97 1739.14 1028.62 1739.14 1029.3V1029.8C1739.14 1030.48 1739.19 1031.14 1739.28 1031.77C1739.39 1032.39 1739.56 1032.95 1739.81 1033.45C1740.07 1033.94 1740.43 1034.33 1740.89 1034.62C1741.36 1034.92 1741.95 1035.06 1742.67 1035.06ZM1760.42 1021.09V1024.06H1750.73V1021.09H1760.42ZM1753.33 1016.94H1757.47V1033.12C1757.47 1033.62 1757.54 1034.01 1757.67 1034.28C1757.81 1034.55 1758.01 1034.73 1758.28 1034.83C1758.55 1034.92 1758.88 1034.97 1759.25 1034.97C1759.52 1034.97 1759.77 1034.95 1760 1034.92C1760.23 1034.89 1760.42 1034.86 1760.58 1034.83L1760.59 1037.92C1760.25 1038.04 1759.86 1038.13 1759.42 1038.2C1758.99 1038.28 1758.51 1038.31 1757.97 1038.31C1757.04 1038.31 1756.23 1038.16 1755.53 1037.84C1754.83 1037.52 1754.29 1037.01 1753.91 1036.3C1753.52 1035.58 1753.33 1034.63 1753.33 1033.45V1016.94ZM1780.44 1033.38C1780.44 1033.02 1780.34 1032.7 1780.16 1032.42C1779.97 1032.14 1779.61 1031.89 1779.09 1031.66C1778.58 1031.42 1777.83 1031.19 1776.84 1030.98C1775.97 1030.8 1775.16 1030.56 1774.42 1030.28C1773.68 1030 1773.05 1029.66 1772.52 1029.27C1771.98 1028.86 1771.57 1028.39 1771.27 1027.84C1770.97 1027.29 1770.83 1026.66 1770.83 1025.94C1770.83 1025.24 1770.98 1024.58 1771.28 1023.97C1771.58 1023.34 1772.02 1022.8 1772.59 1022.33C1773.17 1021.85 1773.86 1021.47 1774.69 1021.2C1775.51 1020.92 1776.44 1020.78 1777.47 1020.78C1778.91 1020.78 1780.14 1021.02 1781.17 1021.48C1782.21 1021.95 1783.01 1022.6 1783.56 1023.42C1784.11 1024.23 1784.39 1025.15 1784.39 1026.17H1780.27C1780.27 1025.72 1780.16 1025.32 1779.95 1024.95C1779.76 1024.59 1779.45 1024.3 1779.03 1024.08C1778.61 1023.85 1778.09 1023.73 1777.45 1023.73C1776.88 1023.73 1776.4 1023.83 1776 1024.02C1775.61 1024.2 1775.32 1024.45 1775.12 1024.75C1774.93 1025.05 1774.83 1025.39 1774.83 1025.75C1774.83 1026.02 1774.88 1026.27 1774.98 1026.48C1775.1 1026.69 1775.28 1026.89 1775.53 1027.06C1775.78 1027.24 1776.12 1027.4 1776.55 1027.55C1776.98 1027.69 1777.52 1027.83 1778.16 1027.97C1779.42 1028.22 1780.52 1028.55 1781.45 1028.97C1782.4 1029.38 1783.14 1029.92 1783.67 1030.59C1784.2 1031.27 1784.47 1032.14 1784.47 1033.19C1784.47 1033.94 1784.31 1034.62 1783.98 1035.25C1783.66 1035.86 1783.19 1036.4 1782.58 1036.86C1781.96 1037.32 1781.23 1037.68 1780.38 1037.94C1779.52 1038.19 1778.56 1038.31 1777.48 1038.31C1775.93 1038.31 1774.62 1038.04 1773.55 1037.48C1772.47 1036.92 1771.66 1036.21 1771.11 1035.36C1770.56 1034.49 1770.28 1033.6 1770.28 1032.67H1774.23C1774.27 1033.33 1774.44 1033.85 1774.77 1034.25C1775.09 1034.65 1775.49 1034.93 1775.98 1035.11C1776.48 1035.28 1777.01 1035.36 1777.56 1035.36C1778.19 1035.36 1778.71 1035.28 1779.14 1035.11C1779.57 1034.93 1779.89 1034.7 1780.11 1034.41C1780.33 1034.1 1780.44 1033.76 1780.44 1033.38ZM1797.67 1033.98V1021.09H1801.83V1038H1797.92L1797.67 1033.98ZM1798.2 1030.48L1799.48 1030.45C1799.48 1031.59 1799.36 1032.64 1799.11 1033.59C1798.86 1034.55 1798.47 1035.39 1797.94 1036.09C1797.42 1036.79 1796.76 1037.34 1795.95 1037.73C1795.15 1038.12 1794.2 1038.31 1793.11 1038.31C1792.28 1038.31 1791.52 1038.2 1790.83 1037.97C1790.14 1037.73 1789.55 1037.36 1789.05 1036.86C1788.56 1036.35 1788.18 1035.7 1787.91 1034.91C1787.64 1034.1 1787.5 1033.14 1787.5 1032.02V1021.09H1791.62V1032.05C1791.62 1032.61 1791.69 1033.08 1791.81 1033.45C1791.95 1033.83 1792.13 1034.14 1792.36 1034.38C1792.6 1034.6 1792.88 1034.77 1793.19 1034.88C1793.51 1034.97 1793.85 1035.02 1794.22 1035.02C1795.22 1035.02 1796.01 1034.82 1796.58 1034.42C1797.16 1034.02 1797.58 1033.47 1797.83 1032.8C1798.08 1032.11 1798.2 1031.34 1798.2 1030.48ZM1809.61 1024.34V1044.5H1805.47V1021.09H1809.3L1809.61 1024.34ZM1820.47 1029.38V1029.7C1820.47 1030.93 1820.32 1032.07 1820.03 1033.12C1819.75 1034.17 1819.33 1035.08 1818.78 1035.86C1818.23 1036.63 1817.54 1037.23 1816.72 1037.67C1815.91 1038.1 1814.97 1038.31 1813.91 1038.31C1812.86 1038.31 1811.96 1038.11 1811.19 1037.72C1810.42 1037.31 1809.77 1036.74 1809.23 1036C1808.7 1035.26 1808.28 1034.4 1807.95 1033.42C1807.64 1032.43 1807.41 1031.35 1807.25 1030.19V1029.14C1807.41 1027.9 1807.64 1026.78 1807.95 1025.77C1808.28 1024.74 1808.7 1023.86 1809.23 1023.12C1809.77 1022.38 1810.41 1021.8 1811.17 1021.39C1811.94 1020.98 1812.84 1020.78 1813.88 1020.78C1814.95 1020.78 1815.89 1020.98 1816.7 1021.39C1817.53 1021.8 1818.22 1022.38 1818.78 1023.14C1819.34 1023.9 1819.77 1024.81 1820.05 1025.86C1820.33 1026.91 1820.47 1028.08 1820.47 1029.38ZM1816.33 1029.7V1029.38C1816.33 1028.62 1816.26 1027.93 1816.12 1027.3C1815.99 1026.65 1815.78 1026.09 1815.5 1025.61C1815.22 1025.12 1814.85 1024.74 1814.41 1024.47C1813.96 1024.2 1813.42 1024.06 1812.78 1024.06C1812.15 1024.06 1811.6 1024.17 1811.14 1024.38C1810.68 1024.58 1810.31 1024.88 1810.02 1025.27C1809.72 1025.65 1809.49 1026.11 1809.33 1026.64C1809.17 1027.16 1809.07 1027.74 1809.02 1028.38V1030.97C1809.11 1031.74 1809.29 1032.43 1809.56 1033.05C1809.83 1033.66 1810.23 1034.15 1810.75 1034.52C1811.28 1034.88 1811.97 1035.06 1812.81 1035.06C1813.45 1035.06 1813.99 1034.92 1814.44 1034.64C1814.89 1034.36 1815.25 1033.97 1815.53 1033.48C1815.81 1032.98 1816.02 1032.41 1816.14 1031.77C1816.27 1031.12 1816.33 1030.43 1816.33 1029.7ZM1827.61 1024.34V1044.5H1823.47V1021.09H1827.3L1827.61 1024.34ZM1838.47 1029.38V1029.7C1838.47 1030.93 1838.32 1032.07 1838.03 1033.12C1837.75 1034.17 1837.33 1035.08 1836.78 1035.86C1836.23 1036.63 1835.54 1037.23 1834.72 1037.67C1833.91 1038.1 1832.97 1038.31 1831.91 1038.31C1830.86 1038.31 1829.96 1038.11 1829.19 1037.72C1828.42 1037.31 1827.77 1036.74 1827.23 1036C1826.7 1035.26 1826.28 1034.4 1825.95 1033.42C1825.64 1032.43 1825.41 1031.35 1825.25 1030.19V1029.14C1825.41 1027.9 1825.64 1026.78 1825.95 1025.77C1826.28 1024.74 1826.7 1023.86 1827.23 1023.12C1827.77 1022.38 1828.41 1021.8 1829.17 1021.39C1829.94 1020.98 1830.84 1020.78 1831.88 1020.78C1832.95 1020.78 1833.89 1020.98 1834.7 1021.39C1835.53 1021.8 1836.22 1022.38 1836.78 1023.14C1837.34 1023.9 1837.77 1024.81 1838.05 1025.86C1838.33 1026.91 1838.47 1028.08 1838.47 1029.38ZM1834.33 1029.7V1029.38C1834.33 1028.62 1834.26 1027.93 1834.12 1027.3C1833.99 1026.65 1833.78 1026.09 1833.5 1025.61C1833.22 1025.12 1832.85 1024.74 1832.41 1024.47C1831.96 1024.2 1831.42 1024.06 1830.78 1024.06C1830.15 1024.06 1829.6 1024.17 1829.14 1024.38C1828.68 1024.58 1828.31 1024.88 1828.02 1025.27C1827.72 1025.65 1827.49 1026.11 1827.33 1026.64C1827.17 1027.16 1827.07 1027.74 1827.02 1028.38V1030.97C1827.11 1031.74 1827.29 1032.43 1827.56 1033.05C1827.83 1033.66 1828.23 1034.15 1828.75 1034.52C1829.28 1034.88 1829.97 1035.06 1830.81 1035.06C1831.45 1035.06 1831.99 1034.92 1832.44 1034.64C1832.89 1034.36 1833.25 1033.97 1833.53 1033.48C1833.81 1032.98 1834.02 1032.41 1834.14 1031.77C1834.27 1031.12 1834.33 1030.43 1834.33 1029.7ZM1840.75 1029.72V1029.39C1840.75 1028.15 1840.93 1027.01 1841.28 1025.97C1841.64 1024.92 1842.15 1024.01 1842.83 1023.23C1843.51 1022.46 1844.33 1021.86 1845.31 1021.44C1846.29 1021 1847.41 1020.78 1848.66 1020.78C1849.93 1020.78 1851.05 1021 1852.03 1021.44C1853.02 1021.86 1853.85 1022.46 1854.53 1023.23C1855.21 1024.01 1855.72 1024.92 1856.08 1025.97C1856.43 1027.01 1856.61 1028.15 1856.61 1029.39V1029.72C1856.61 1030.95 1856.43 1032.09 1856.08 1033.14C1855.72 1034.18 1855.21 1035.09 1854.53 1035.88C1853.85 1036.65 1853.03 1037.24 1852.05 1037.67C1851.07 1038.1 1849.95 1038.31 1848.69 1038.31C1847.44 1038.31 1846.32 1038.1 1845.33 1037.67C1844.34 1037.24 1843.51 1036.65 1842.83 1035.88C1842.15 1035.09 1841.64 1034.18 1841.28 1033.14C1840.93 1032.09 1840.75 1030.95 1840.75 1029.72ZM1844.88 1029.39V1029.72C1844.88 1030.46 1844.95 1031.15 1845.09 1031.8C1845.24 1032.44 1845.46 1033.01 1845.77 1033.5C1846.07 1033.99 1846.46 1034.38 1846.94 1034.66C1847.43 1034.93 1848.01 1035.06 1848.69 1035.06C1849.35 1035.06 1849.93 1034.93 1850.41 1034.66C1850.89 1034.38 1851.28 1033.99 1851.58 1033.5C1851.89 1033.01 1852.12 1032.44 1852.27 1031.8C1852.41 1031.15 1852.48 1030.46 1852.48 1029.72V1029.39C1852.48 1028.66 1852.41 1027.98 1852.27 1027.34C1852.12 1026.7 1851.89 1026.13 1851.58 1025.64C1851.28 1025.14 1850.88 1024.75 1850.39 1024.47C1849.91 1024.18 1849.33 1024.03 1848.66 1024.03C1847.99 1024.03 1847.42 1024.18 1846.94 1024.47C1846.46 1024.75 1846.07 1025.14 1845.77 1025.64C1845.46 1026.13 1845.24 1026.7 1845.09 1027.34C1844.95 1027.98 1844.88 1028.66 1844.88 1029.39ZM1863.73 1024.55V1038H1859.61V1021.09H1863.52L1863.73 1024.55ZM1868.88 1020.98L1868.81 1024.83C1868.58 1024.79 1868.32 1024.76 1868.03 1024.73C1867.75 1024.71 1867.48 1024.7 1867.23 1024.7C1866.6 1024.7 1866.04 1024.79 1865.56 1024.97C1865.08 1025.14 1864.68 1025.38 1864.36 1025.7C1864.05 1026.03 1863.81 1026.42 1863.64 1026.89C1863.47 1027.35 1863.38 1027.87 1863.36 1028.45L1862.47 1028.34C1862.47 1027.27 1862.58 1026.28 1862.8 1025.36C1863.02 1024.44 1863.33 1023.64 1863.75 1022.95C1864.17 1022.27 1864.69 1021.73 1865.31 1021.36C1865.95 1020.97 1866.68 1020.78 1867.5 1020.78C1867.73 1020.78 1867.97 1020.8 1868.23 1020.84C1868.51 1020.88 1868.72 1020.92 1868.88 1020.98ZM1879.92 1021.09V1024.06H1870.23V1021.09H1879.92ZM1872.83 1016.94H1876.97V1033.12C1876.97 1033.62 1877.04 1034.01 1877.17 1034.28C1877.31 1034.55 1877.51 1034.73 1877.78 1034.83C1878.05 1034.92 1878.38 1034.97 1878.75 1034.97C1879.02 1034.97 1879.27 1034.95 1879.5 1034.92C1879.73 1034.89 1879.92 1034.86 1880.08 1034.83L1880.09 1037.92C1879.75 1038.04 1879.36 1038.13 1878.92 1038.2C1878.49 1038.28 1878.01 1038.31 1877.47 1038.31C1876.54 1038.31 1875.73 1038.16 1875.03 1037.84C1874.33 1037.52 1873.79 1037.01 1873.41 1036.3C1873.02 1035.58 1872.83 1034.63 1872.83 1033.45V1016.94Z" fill="black"/>
<path d="M1052.55 51.4896C1047.35 57.7979 1043.09 64.8239 1039.9 72.35L1027.08 66.8604L1041.43 52.5167C1042.25 51.6908 1043.27 51.0812 1044.39 50.7414C1045.51 50.4017 1046.69 50.3424 1047.84 50.5688L1052.55 51.4896ZM1059.56 89.2083C1059.56 89.2083 1072.81 83.7188 1080.42 76.1042C1099.55 56.9792 1096.36 42.0333 1095.33 38.6688C1091.97 37.6063 1077.02 34.4542 1057.9 53.5792C1050.28 61.1938 1044.79 74.4396 1044.79 74.4396L1059.56 89.2083ZM1082.51 81.4521C1076.2 86.6493 1069.18 90.9079 1061.65 94.0958L1067.14 106.917L1081.48 92.5729C1083.15 90.9083 1083.89 88.5 1083.43 86.1625L1082.51 81.4521ZM1051.88 92.75C1051.87 95.567 1050.75 98.2677 1048.76 100.258C1044.58 104.438 1027.08 106.917 1027.08 106.917C1027.08 106.917 1029.56 89.4208 1033.74 85.2417C1035.23 83.7576 1037.12 82.7472 1039.18 82.338C1041.24 81.9288 1043.37 82.1392 1045.31 82.9426C1047.26 83.746 1048.91 85.1064 1050.08 86.852C1051.25 88.5975 1051.87 90.6499 1051.88 92.75ZM1066.04 60.875C1066.04 56.9792 1069.23 53.7917 1073.13 53.7917C1077.02 53.7917 1080.21 56.9792 1080.21 60.875C1080.21 64.7708 1077.02 67.9583 1073.13 67.9583C1069.23 67.9583 1066.04 64.7708 1066.04 60.875Z" fill="black"/>
<path d="M889.76 477.04H976.16V500.08H944.48V598H921.44V500.08H889.76V477.04ZM1043.47 505.84C1063.99 505.84 1076.95 519.16 1076.95 546.16V598H1053.91V549.04C1053.91 535.18 1048.51 528.88 1036.63 528.88C1026.19 528.88 1016.47 535.72 1016.47 551.92V598H993.43V471.28H1016.47V517.36C1022.59 510.16 1029.97 505.84 1043.47 505.84ZM1163.38 508.72H1186.42V598H1163.38V588.46C1156.18 596.74 1146.82 600.88 1136.02 600.88C1111.36 600.88 1091.38 579.64 1091.38 553.36C1091.38 527.08 1111.36 505.84 1136.02 505.84C1146.82 505.84 1156.18 509.98 1163.38 518.26V508.72ZM1138.9 577.84C1152.4 577.84 1163.38 566.86 1163.38 553.36C1163.38 539.86 1152.4 528.88 1138.9 528.88C1125.4 528.88 1114.42 539.86 1114.42 553.36C1114.42 566.86 1125.4 577.84 1138.9 577.84ZM1258.1 505.84C1278.62 505.84 1291.58 519.16 1291.58 546.16V598H1268.54V549.04C1268.54 535.18 1263.14 528.88 1251.26 528.88C1240.82 528.88 1231.1 535.72 1231.1 551.92V598H1208.06V508.72H1231.1V517.36C1237.22 510.16 1244.6 505.84 1258.1 505.84ZM1354.97 551.92L1401.05 598H1372.25L1334.81 562.72V598H1311.77V471.28H1334.81V542.56L1369.37 508.72H1398.17L1354.97 551.92ZM1524.76 508.72H1550.68L1493.08 644.08H1467.16L1490.2 591.52L1455.64 508.72H1481.56L1503.16 561.28L1524.76 508.72ZM1601.21 505.84C1627.49 505.84 1648.73 527.08 1648.73 553.36C1648.73 579.64 1627.49 600.88 1601.21 600.88C1574.93 600.88 1553.69 579.64 1553.69 553.36C1553.69 527.08 1574.93 505.84 1601.21 505.84ZM1601.21 577.84C1614.71 577.84 1625.69 566.86 1625.69 553.36C1625.69 539.86 1614.71 528.88 1601.21 528.88C1587.71 528.88 1576.73 539.86 1576.73 553.36C1576.73 566.86 1587.71 577.84 1601.21 577.84ZM1693.76 600.88C1673.24 600.88 1660.28 587.56 1660.28 560.56V508.72H1683.32V557.68C1683.32 571.54 1688.72 577.84 1700.6 577.84C1711.04 577.84 1720.76 571 1720.76 554.8V508.72H1743.8V598H1720.76V589.36C1714.64 596.56 1707.26 600.88 1693.76 600.88Z" fill="#151632"/>
</g>
<defs>
<clipPath id="clip0_1634_9738">
<rect width="1920" height="1080" fill="white"/>
</clipPath>
<clipPath id="clip1_1634_9738">
<rect width="42" height="43" fill="white" transform="translate(494 887)"/>
</clipPath>
<clipPath id="clip2_1634_9738">
<rect width="60" height="60" fill="white" transform="translate(872 997)"/>
</clipPath>
<clipPath id="clip3_1634_9738">
<rect width="60" height="60" fill="white" transform="translate(1170 997)"/>
</clipPath>
<clipPath id="clip4_1634_9738">
<rect width="60" height="60" fill="white" transform="translate(1584 997)"/>
</clipPath>
</defs>
</svg>
