<?xml version="1.0" encoding="UTF-8" standalone="no"?>
<!-- Created with Inkscape (http://www.inkscape.org/) -->

<svg
   version="1.1"
   id="svg2"
   width="249.45332"
   height="113.38667"
   viewBox="0 0 249.45332 113.38667"
   sodipodi:docname="SIG_LOGO_White.eps"
   xmlns:inkscape="http://www.inkscape.org/namespaces/inkscape"
   xmlns:sodipodi="http://sodipodi.sourceforge.net/DTD/sodipodi-0.dtd"
   xmlns="http://www.w3.org/2000/svg"
   xmlns:svg="http://www.w3.org/2000/svg">
  <defs
     id="defs6" />
  <sodipodi:namedview
     id="namedview4"
     pagecolor="#ffffff"
     bordercolor="#000000"
     borderopacity="0.25"
     inkscape:showpageshadow="2"
     inkscape:pageopacity="0.0"
     inkscape:pagecheckerboard="0"
     inkscape:deskcolor="#d1d1d1" />
  <g
     id="g8"
     inkscape:groupmode="layer"
     inkscape:label="ink_ext_XXXXXX"
     transform="matrix(1.3333333,0,0,-1.3333333,0,113.38667)">
    <g
       id="g10"
       transform="scale(0.1)">
      <path
         d="M 753.102,443.09 V 331.047 c -10.051,-2 -48.743,-9.539 -84.418,0 V 254.68 c 9.035,-1.524 18.097,-2.02 28.652,-2.02 45.715,0 101.984,5.535 137.664,18.594 V 443.09 Z m 64.32,98.484 18.578,70.852 c -33.77,14.414 -71.469,16.66 -95.379,16.859 -23.617,0.192 -49.82,-3.297 -72.445,-9.324 v -74.363 c 22.625,6.531 52.758,10.05 74.367,9.547 35.176,-0.497 59.793,-8.028 74.879,-13.571"
         style="fill:#ffffff;fill-opacity:1;fill-rule:nonzero;stroke:none"
         id="path12" />
      <path
         d="m 438.559,557.656 0.504,68.328 c -97.977,15.582 -167.309,-26.629 -167.309,-104.496 0.488,-69.351 63.309,-99.152 115.555,-119.258 14.57,-5.539 41.496,-15.167 50.933,-23.039 l 0.317,79.485 -39.696,19.09 c -22.09,10.547 -42.703,23.621 -42.703,46.222 0,16.586 10.051,36.688 48.735,36.688 9.539,0 20.093,-0.5 33.664,-3.02 M 289.664,341.469 271.754,271.75 c 27.117,-13.055 59.789,-19.598 96.969,-20.594 23.613,-0.5 47.726,1.504 69.836,8.035 v 69.707 c -28.618,-11.015 -45.918,-10.222 -64.782,-9.441 -25.343,1.043 -63.015,10.457 -84.113,22.012"
         style="fill:#ffffff;fill-opacity:1;fill-rule:nonzero;stroke:none"
         id="path14" />
      <path
         d="M 511.418,510.926 V 255.18 h 83.918 v 340.16 c -41.668,-18.512 -73.367,-57.774 -83.918,-84.414"
         style="fill:#ffffff;fill-opacity:1;fill-rule:nonzero;stroke:none"
         id="path16" />
    </g>
  </g>
</svg>
